<?xml version="1.0" encoding="iso-8859-1"?>
<!-- Generator: Adobe Illustrator 19.0.0, SVG Export Plug-In . SVG Version: 6.00 Build 0)  -->
<svg version="1.1" id="&#x56FE;&#x5C42;_1" xmlns="http://www.w3.org/2000/svg" xmlns:xlink="http://www.w3.org/1999/xlink" x="0px"
	 y="0px" viewBox="0 0 256 256" style="enable-background:new 0 0 256 256;" xml:space="preserve">
<path id="XMLID_79_" style="fill:#444546;" d="M127.791,33.525c17.185,0,32.75,6.956,44.066,18.272l0,0
	c11.215,11.206,18.167,26.728,18.167,43.913c0,17.233-6.952,32.75-18.167,43.961c-2.07,2.132-4.302,4-6.587,5.763
	c10.535,2.807,19.824,8.408,27.356,15.882l0,0c11.105,11.009,18.062,26.474,18.062,43.29v11.733c0,4.048-3.325,7.372-7.373,7.372
	h-0.1H52.373c-4.053,0-7.373-3.324-7.373-7.372v-0.101v-11.631c0-16.816,6.904-32.281,18.066-43.29
	c7.421-7.574,16.916-13.074,27.351-15.882c-2.333-1.821-4.518-3.631-6.535-5.763c-11.273-11.211-18.224-26.728-18.224-43.961
	c0-17.185,6.952-32.707,18.224-43.913C95.088,40.482,110.711,33.525,127.791,33.525L127.791,33.525z M161.48,62.074L161.48,62.074
	c-8.618-8.614-20.457-13.913-33.689-13.913c-13.132,0-25.018,5.299-33.584,13.913c-8.614,8.618-13.961,20.499-13.961,33.637
	c0,13.079,5.347,25.018,13.961,33.637l0,0v0.053c8.566,8.561,20.452,13.908,33.584,13.908c13.232,0,25.018-5.347,33.632-13.961
	c8.619-8.619,13.965-20.558,13.965-33.637c0-13.137-5.347-25.019-13.965-33.637H161.48L161.48,62.074z M149.33,157.891
	L149.33,157.891h-21.54h-21.439c-12.873,0-24.496,5.294-32.904,13.812c-8.518,8.408-13.707,20.083-13.707,32.904v4.465h136.305
	v-4.465c0-12.82-5.294-24.496-13.755-32.904v-0.105C173.831,163.185,162.208,157.891,149.33,157.891L149.33,157.891z"/>
</svg>
