<?xml version="1.0" encoding="iso-8859-1"?>
<!-- Generator: Adobe Illustrator 19.0.0, SVG Export Plug-In . SVG Version: 6.00 Build 0)  -->
<svg version="1.1" id="&#x56FE;&#x5C42;_1" xmlns="http://www.w3.org/2000/svg" xmlns:xlink="http://www.w3.org/1999/xlink" x="0px"
	 y="0px" viewBox="0 0 256 256" style="enable-background:new 0 0 256 256;" xml:space="preserve">
<path id="XMLID_745_" style="fill:#AF5B24;" d="M152,240h-48c-48.601,0-88-39.399-88-88v-48c0-48.601,39.399-88,88-88h48
	c48.601,0,88,39.399,88,88v48C240,200.601,200.601,240,152,240z"/>
<path id="XMLID_462_" style="fill:#FFFFFF;" d="M92.276,98.409c1.63,0,2.947-1.281,2.947-2.95c0-1.663-1.317-2.95-2.947-2.95h-16.07
	c-1.666,0-2.982,1.287-2.982,2.95c0,1.669,1.317,2.95,2.982,2.95H92.276L92.276,98.409z M176.92,113.788L176.92,113.788
	c1.387,0.829,3.194,0.308,4.026-1.115c0.762-1.387,0.346-3.123-1.111-3.953l-13.95-8.088c-1.39-0.833-3.197-0.311-3.956,1.041
	c-0.836,1.425-0.384,3.194,1.038,4.026L176.92,113.788L176.92,113.788z M92.654,90.325L92.654,90.325
	c1.355,0.766,3.162,0.279,3.991-1.109c0.801-1.39,0.314-3.193-1.073-4.026l-13.953-7.982c-1.387-0.836-3.194-0.42-3.953,1.006
	c-0.836,1.422-0.384,3.19,1.041,4.026L92.654,90.325L92.654,90.325z M92.654,100.632L92.654,100.632l-13.947,8.088
	c-1.425,0.83-1.877,2.565-1.041,3.953c0.759,1.422,2.566,1.944,3.953,1.115l13.953-8.088c1.387-0.833,1.874-2.601,1.073-4.026
	C95.816,100.322,94.009,99.8,92.654,100.632L92.654,100.632z M122.504,100.527L122.504,100.527c1.733,1.704,4.129,2.745,6.73,2.745
	c2.707,0,5.067-1.041,6.801-2.745c1.669-1.733,2.78-4.164,2.78-6.8c0-2.498-0.974-4.824-2.639-6.525l-0.141-0.208
	c-1.733-1.666-4.094-2.809-6.801-2.809c-2.601,0-4.997,1.144-6.73,2.809c-1.739,1.736-2.777,4.164-2.777,6.733
	C119.727,96.363,120.765,98.793,122.504,100.527L122.504,100.527z M126.669,91.157L126.669,91.157
	c0.622-0.621,1.595-1.073,2.566-1.073c1.041,0,2.015,0.452,2.636,1.073l0.144,0.138c0.621,0.557,0.897,1.528,0.897,2.431
	c0,1.041-0.378,1.98-1.041,2.636c-0.622,0.698-1.595,1.076-2.636,1.076c-0.971,0-1.944-0.378-2.566-1.076
	c-0.625-0.657-1.076-1.595-1.076-2.636S126.044,91.782,126.669,91.157L126.669,91.157z M182.365,92.509L182.365,92.509h-16.138
	c-1.595,0-2.912,1.287-2.912,2.95c0,1.669,1.316,2.95,2.912,2.95h16.138c1.602,0,2.883-1.281,2.883-2.95
	C185.248,93.797,183.967,92.509,182.365,92.509L182.365,92.509z M178.723,181.702L178.723,181.702h-20.616l-6.384-72.081
	l2.777-20.824h0.554c2.71,0,4.859-2.185,4.859-4.894c0-1.976-1.108-3.712-2.777-4.408l-25.472-14.469
	c-1.528-0.903-3.335-0.833-4.792,0l-25.75,14.61c-2.361,1.316-3.19,4.337-1.874,6.733c0.903,1.525,2.566,2.428,4.235,2.428h0.522
	l2.812,20.824l-6.387,72.081h-20.58c-2.672,0-4.895,2.223-4.895,4.93c0,2.675,2.223,4.859,4.895,4.859h98.872
	c2.636,0,4.859-2.185,4.859-4.859C183.583,183.925,181.36,181.702,178.723,181.702L178.723,181.702z M129.234,74.879L129.234,74.879
	l16.106,9.094l-3.056,22.701h-26.029l-3.053-22.701L129.234,74.879L129.234,74.879z M142.7,118.122L142.7,118.122l0.833,10.064
	l-30.052,17.425l0.971-11.141L142.7,118.122L142.7,118.122z M115.076,127.321L115.076,127.321l1.246-14.821h24.367L115.076,127.321
	L115.076,127.321z M112.853,152.655L112.853,152.655l31.308-17.979l0.865,10.032l-33.214,19.19L112.853,152.655L112.853,152.655z
	 M110.284,181.702L110.284,181.702l0.903-10.724l34.393-19.85l0.903,10.135l-35.501,20.439H110.284L110.284,181.702z
	 M122.642,181.702L122.642,181.702l24.431-14.123l1.217,14.123H122.642L122.642,181.702z M165.885,90.325L165.885,90.325
	l13.95-8.085c1.457-0.836,1.874-2.604,1.111-4.026c-0.833-1.426-2.639-1.842-4.026-1.006l-13.953,7.982
	c-1.422,0.833-1.874,2.636-1.038,4.026C162.688,90.603,164.495,91.09,165.885,90.325L165.885,90.325z"/>
<circle id="XMLID_1056_" style="opacity:0.16;fill:#FFFFFF;" cx="80.472" cy="142" r="4"/>
<circle id="XMLID_1040_" style="opacity:0.16;fill:#FFFFFF;" cx="208.472" cy="75" r="4"/>
<circle id="XMLID_1054_" style="opacity:0.16;fill:#FFFFFF;" cx="113.472" cy="216" r="4"/>
<circle id="XMLID_1058_" style="opacity:0.58;fill:#FFFFFF;" cx="47.472" cy="164" r="2"/>
<circle id="XMLID_1057_" style="opacity:0.58;fill:#FFFFFF;" cx="154.472" cy="61" r="2"/>
<circle id="XMLID_1055_" style="opacity:0.58;fill:#FFFFFF;" cx="94.472" cy="56" r="2"/>
</svg>
