<?xml version="1.0" encoding="iso-8859-1"?>
<!-- Generator: Adobe Illustrator 19.0.0, SVG Export Plug-In . SVG Version: 6.00 Build 0)  -->
<svg version="1.1" id="&#x56FE;&#x5C42;_1" xmlns="http://www.w3.org/2000/svg" xmlns:xlink="http://www.w3.org/1999/xlink" x="0px"
	 y="0px" viewBox="0 0 256 256" style="enable-background:new 0 0 256 256;" xml:space="preserve">
<path id="XMLID_93_" style="fill:#444546;" d="M77.527,38.559l28.007,36.102l0.416,0.512c1.35,1.819,2.278,3.734,2.795,5.81
	c0.622,2.284,0.728,4.668,0.364,7.104c-0.311,2.441-1.139,4.725-2.384,6.745l-0.263,0.463c-1.134,1.762-2.69,3.318-4.456,4.668
	l-0.517,0.416l-13.59,9.856c-0.828,1.967-1.867,6.323,1.867,11.665c6.017,8.611,12.656,16.543,20.018,23.962l0,0h0.105
	c7.367,7.415,15.351,14.159,23.857,20.071c5.342,3.734,9.751,2.694,11.718,1.867l10.167-14.001l0,0
	c1.455-2.077,3.164-3.633,5.289-4.878c1.967-1.24,4.198-2.026,6.634-2.384h0.316c2.331-0.312,4.667-0.105,6.845,0.412l0.359,0.11
	c2.13,0.622,4.103,1.655,5.964,3.107l36.049,27.955l0.569,0.574c1.872,1.45,3.265,3.265,4.356,5.337l0,0
	c1.139,2.231,1.867,4.825,1.968,7.419c0.11,2.641-0.307,5.184-1.24,7.52c-1.039,2.384-2.489,4.514-4.408,6.322
	c-2.384,2.231-5.136,4.409-8.664,6.487l-0.412,0.206c-3.317,1.971-7.161,3.838-11.775,5.395c-19.808,6.533-41.018,5.342-61.299-1.35
	c-21.526-7.209-42.114-20.64-58.968-37.442c-16.959-17.012-30.338-37.547-37.442-59.074c-6.792-20.276-7.989-41.438-1.455-61.298
	c1.661-4.772,3.523-8.765,5.6-12.187v-0.057c2.077-3.418,4.308-6.271,6.433-8.607c1.867-1.919,3.992-3.475,6.323-4.409l0.627-0.206
	c2.178-0.828,4.509-1.144,6.893-1.034c2.652,0.096,5.189,0.771,7.419,1.915l0.416,0.206L77.527,38.559L77.527,38.559z
	 M94.023,83.573L94.023,83.573L66.015,47.529h0.105c-0.316-0.359-0.675-0.67-0.933-0.771l-0.211-0.109
	c-0.412-0.306-0.881-0.359-1.35-0.412c-0.517,0-0.881,0.053-1.24,0.105l-0.206,0.101c-0.421,0.206-0.728,0.522-1.144,0.881
	c-1.455,1.608-3.164,3.686-4.667,6.223l0,0c-1.455,2.594-3.011,5.657-4.15,9.286c-5.6,16.596-4.461,34.646,1.35,52.07
	c6.324,19.243,18.568,37.858,33.914,53.262c15.456,15.404,34.019,27.538,53.315,33.971c17.429,5.807,35.475,6.893,52.176,1.351
	c3.322-1.144,6.328-2.494,8.918-4.05l0.258-0.153c2.547-1.508,4.619-3.164,6.175-4.72c0.412-0.258,0.728-0.675,0.933-1.039l0,0
	c0.101-0.416,0.206-0.933,0.101-1.45c0-0.522-0.101-0.938-0.306-1.35h0.101l-0.101-0.053c-0.105-0.258-0.369-0.57-0.622-0.775
	l-0.206-0.316l-36.097-27.902v-0.048l0,0c-0.316-0.258-0.675-0.364-0.991-0.464l-0.153-0.11c-0.412-0.101-0.828-0.101-1.245-0.101
	h-0.105c-0.411,0.101-0.933,0.311-1.24,0.517v-0.101v0.101c-0.316,0.105-0.627,0.412-0.938,0.833h-0.052l-10.991,15.14
	c-0.574,0.828-1.403,1.661-2.384,2.178c0,0-12.919,9.234-28.634-1.762c-9.387-6.534-17.993-13.795-25.877-21.68l0,0
	c-7.932-7.936-15.193-16.595-21.732-25.934c-10.938-15.711-1.814-28.524-1.814-28.625h0.105c0.412-0.828,1.034-1.556,1.862-2.125
	l14.939-10.89l0.522-0.412c0.306-0.163,0.569-0.469,0.723-0.78l0.105-0.158c0.306-0.311,0.417-0.676,0.517-1.245
	c0-0.469,0-0.886-0.1-1.245c-0.11-0.359-0.211-0.57-0.417-0.986L94.023,83.573L94.023,83.573z M77.527,38.559L77.527,38.559
	L77.527,38.559L77.527,38.559L77.527,38.559L77.527,38.559L77.527,38.559z"/>
</svg>
