<?xml version="1.0" encoding="iso-8859-1"?>
<!-- Generator: Adobe Illustrator 19.0.0, SVG Export Plug-In . SVG Version: 6.00 Build 0)  -->
<svg version="1.1" id="&#x56FE;&#x5C42;_1" xmlns="http://www.w3.org/2000/svg" xmlns:xlink="http://www.w3.org/1999/xlink" x="0px"
	 y="0px" viewBox="0 0 256 256" style="enable-background:new 0 0 256 256;" xml:space="preserve">
<path id="XMLID_689_" style="fill:#0C6D84;" d="M152,240h-48c-48.601,0-88-39.399-88-88v-48c0-48.601,39.399-88,88-88h48
	c48.601,0,88,39.399,88,88v48C240,200.601,200.601,240,152,240z"/>
<path id="XMLID_109_" style="fill:#FFFFFF;" d="M117.151,100.422H139l6.76-15.467l-2.045-5.307h-31.283l-2.01,5.307L117.151,100.422
	L117.151,100.422z M148.709,107.151L148.709,107.151l29.414,29.478c1.178,1.146,1.178,2.983,0,4.164l-11.411,11.373
	c-1.146,1.181-3.018,1.181-4.161,0l-0.141-0.173l-7.109-7.039l3.604,20.285c0.282,1.738-0.413,3.402-1.594,4.545l-25.8,25.8
	c-1.876,1.876-4.962,1.876-6.869,0l0,0l-26.008-26.043c-1.216-1.213-1.668-2.878-1.319-4.507l10.749-61.145l-7.385-16.956
	c-0.522-1.216-0.522-2.57-0.035-3.646l3.95-10.298c0.765-1.943,2.571-3.086,4.549-3.086h37.906c2.218,0,4.091,1.421,4.68,3.467
	l3.851,9.917c0.487,1.216,0.416,2.567-0.07,3.646l-7.388,16.956L148.709,107.151L148.709,107.151z M138.652,106.283L138.652,106.283
	h-21.085l-10.195,58.126l20.739,20.739l20.736-20.669L138.652,106.283L138.652,106.283z M150.447,117.208L150.447,117.208
	l3.051,17.689l11.165,11.063l7.215-7.285L150.447,117.208L150.447,117.208z"/>
<circle id="XMLID_779_" style="opacity:0.16;fill:#FFFFFF;" cx="147.472" cy="211" r="4"/>
<circle id="XMLID_829_" style="opacity:0.16;fill:#FFFFFF;" cx="42.472" cy="158" r="4"/>
<circle id="XMLID_884_" style="opacity:0.18;fill:#FFFFFF;" cx="168.472" cy="34" r="4"/>
<circle id="XMLID_831_" style="opacity:0.25;fill:#FFFFFF;" cx="171.472" cy="180" r="3"/>
<circle id="XMLID_814_" style="opacity:0.25;fill:#FFFFFF;" cx="79.472" cy="126" r="3"/>
<circle id="XMLID_830_" style="opacity:0.58;fill:#FFFFFF;" cx="77.472" cy="68" r="2"/>
<circle id="XMLID_828_" style="opacity:0.58;fill:#FFFFFF;" cx="197.472" cy="100" r="2"/>
</svg>
