<?xml version="1.0" encoding="iso-8859-1"?>
<!-- Generator: Adobe Illustrator 19.0.0, SVG Export Plug-In . SVG Version: 6.00 Build 0)  -->
<svg version="1.1" id="&#x56FE;&#x5C42;_1" xmlns="http://www.w3.org/2000/svg" xmlns:xlink="http://www.w3.org/1999/xlink" x="0px"
	 y="0px" viewBox="0 0 256 256" style="enable-background:new 0 0 256 256;" xml:space="preserve">
<path id="XMLID_276_" style="fill:#444546;" d="M191.37,131.175c-4.253,0-7.69,3.438-7.69,7.69v67.499H72.451v-67.499
	c0-4.252-3.487-7.69-7.735-7.69c-4.257,0-7.634,3.438-7.634,7.69v74.972v0.216c0,4.197,3.377,7.689,7.634,7.689h126.433h0.222
	c4.197,0,7.629-3.492,7.629-7.689v-75.188C198.999,134.613,195.567,131.175,191.37,131.175L191.37,131.175z M155.439,191.915
	L155.439,191.915c2.506,0,4.524-2.022,4.524-4.529v-46.725c0-2.506-2.018-4.635-4.524-4.635h-54.742
	c-2.561,0-4.579,2.129-4.579,4.635v46.725c0,2.507,2.018,4.529,4.579,4.529H155.439L155.439,191.915z M105.277,145.296
	L105.277,145.296h45.472v37.35h-45.472V145.296L105.277,145.296z M225.665,130.089L225.665,130.089l-92.087-91.981l-0.116-0.116
	c-2.994-3.1-7.845-3.1-10.845,0l-92.203,92.097c-2.999,2.999-2.999,7.85,0,10.849c2.999,3.055,7.85,3.055,10.855,0l86.747-86.691
	l86.742,86.691c3.055,3.055,7.85,3.055,10.905,0C228.61,137.939,228.61,133.087,225.665,130.089L225.665,130.089z"/>
</svg>
