<?xml version="1.0" encoding="iso-8859-1"?>
<!-- Generator: Adobe Illustrator 19.0.0, SVG Export Plug-In . SVG Version: 6.00 Build 0)  -->
<svg version="1.1" id="&#x56FE;&#x5C42;_1" xmlns="http://www.w3.org/2000/svg" xmlns:xlink="http://www.w3.org/1999/xlink" x="0px"
	 y="0px" viewBox="0 0 256 256" style="enable-background:new 0 0 256 256;" xml:space="preserve">
<path id="XMLID_549_" style="fill:#CB0B16;" d="M152,240h-48c-48.601,0-88-39.399-88-88v-48c0-48.601,39.399-88,88-88h48
	c48.601,0,88,39.399,88,88v48C240,200.601,200.601,240,152,240z"/>
<path id="XMLID_23_" style="fill:#FFFFFF;" d="M111.196,70.59c1.263-1.339,3.392-1.339,4.735,0c1.259,1.263,1.259,3.351,0,4.655
	c-1.656,1.576-2.486,3.785-2.486,5.994c0,1.182,0.197,2.286,0.59,3.232c0.433,1.023,1.066,1.973,1.896,2.762
	c2.839,2.795,4.415,6.7,4.415,10.722c0,1.812-1.535,3.312-3.355,3.312c-1.853,0-3.348-1.499-3.348-3.312
	c0-2.286-0.79-4.418-2.446-5.99c-1.419-1.423-2.522-3.079-3.231-4.931c-0.79-1.812-1.223-3.745-1.223-5.794
	C106.742,77.293,108.357,73.348,111.196,70.59L111.196,70.59z M177.207,109.589L177.207,109.589v0.116
	c0,13.327-5.444,25.316-14.121,34.028c-3.428,3.431-7.293,6.27-11.511,8.556l7.887,12.541c0.942-0.197,1.932-0.277,2.918-0.277
	c4.138,0,7.927,1.696,10.682,4.455l0,0l0,0c2.762,2.682,4.418,6.467,4.418,10.649c0,4.178-1.656,7.963-4.418,10.685l-0.353,0.353
	c-2.723,2.486-6.348,4.062-10.329,4.062c-4.102,0-7.887-1.696-10.649-4.415c-1.456-1.459-2.639-3.195-3.352-5.124H98.498
	l-4.335,6.937c-1.696,2.562-5.048,3.352-7.65,1.736c-2.642-1.616-3.432-5.008-1.776-7.65l21.491-33.952
	c-4.298-2.286-8.163-5.125-11.511-8.556l-0.357-0.273c-8.516-8.753-13.841-20.701-13.841-33.872c0-3.039,2.482-5.561,5.557-5.561
	h0.2h85.405C174.718,104.028,177.207,106.55,177.207,109.589L177.207,109.589z M155.163,135.891L155.163,135.891
	c5.521-5.521,9.306-12.701,10.529-20.744H92.111c1.146,7.926,4.811,15.059,10.176,20.504l0.313,0.24
	c6.704,6.74,16.01,10.882,26.262,10.882S148.456,142.631,155.163,135.891L155.163,135.891z M140.97,156.312L140.97,156.312
	c-3.865,1.026-7.97,1.579-12.108,1.579c-4.218,0-8.2-0.553-12.065-1.579l-11.278,17.785h42.861c0.433-1.182,1.026-2.249,1.736-3.271
	L140.97,156.312L140.97,156.312z M165.219,176.816L165.219,176.816c-0.75-0.706-1.696-1.103-2.839-1.103
	c-1.106,0-2.053,0.397-2.802,1.103c-0.706,0.71-1.143,1.736-1.143,2.722v0.12v0.076c0,1.066,0.437,2.053,1.143,2.722
	c0.75,0.746,1.696,1.183,2.802,1.183c1.026,0,1.929-0.357,2.682-0.986l0.116-0.197c0.75-0.71,1.183-1.696,1.183-2.799
	c0-1.106-0.433-2.053-1.183-2.842H165.219L165.219,176.816z M142.109,70.59L142.109,70.59c1.303-1.339,3.432-1.339,4.735,0
	c1.263,1.263,1.263,3.351,0,4.655c-0.79,0.786-1.459,1.736-1.812,2.759c-0.437,1.026-0.673,2.052-0.673,3.235
	c0,1.182,0.236,2.286,0.673,3.232c0.353,1.023,1.023,1.973,1.812,2.762c1.339,1.416,2.482,3.075,3.272,4.964l0.08,0.156
	c0.67,1.736,1.106,3.632,1.106,5.601c0,1.812-1.539,3.312-3.356,3.312s-3.352-1.499-3.352-3.312c0-1.183-0.236-2.245-0.59-3.192
	v-0.077c-0.473-1.026-1.106-1.936-1.896-2.722c-1.379-1.423-2.522-3.079-3.268-4.931c-0.753-1.812-1.146-3.785-1.146-5.794
	c0-2.009,0.393-3.945,1.146-5.757C139.587,73.629,140.73,71.973,142.109,70.59L142.109,70.59z M126.653,58.132L126.653,58.132
	c-1.259-1.303-1.259-3.432,0-4.735c1.343-1.299,3.468-1.299,4.695,0c1.379,1.383,2.562,3.079,3.348,4.967
	c0.713,1.737,1.106,3.705,1.106,5.758c0,2.013-0.393,3.985-1.106,5.757l-0.076,0.156c-0.79,1.78-1.892,3.392-3.272,4.775
	c-1.539,1.572-2.409,3.741-2.409,6.03c0,1.103,0.24,2.209,0.593,3.195v0.116c0.513,0.95,1.066,1.852,1.816,2.606
	c1.379,1.299,1.379,3.392,0,4.731c-1.226,1.299-3.352,1.299-4.695,0c-1.339-1.339-2.442-2.999-3.232-4.812v-0.08
	c-0.789-1.816-1.183-3.785-1.183-5.757c0-4.062,1.62-7.927,4.415-10.722h0.04c0.713-0.793,1.383-1.659,1.732-2.682l0.084-0.08
	c0.429-0.987,0.67-2.093,0.67-3.235C129.178,61.837,128.268,59.744,126.653,58.132L126.653,58.132z"/>
<circle id="XMLID_40_" style="opacity:0.16;fill:#FFFFFF;" cx="66.472" cy="56" r="4"/>
<circle id="XMLID_45_" style="opacity:0.18;fill:#FFFFFF;" cx="137.472" cy="207" r="4"/>
<circle id="XMLID_42_" style="opacity:0.25;fill:#FFFFFF;" cx="62.472" cy="160" r="3"/>
<circle id="XMLID_47_" style="opacity:0.25;fill:#FFFFFF;" cx="171.472" cy="40" r="3"/>
<circle id="XMLID_43_" style="opacity:0.66;fill:#FFFFFF;" cx="194.472" cy="85" r="2"/>
<circle id="XMLID_50_" style="opacity:0.25;fill:#FFFFFF;" cx="113.472" cy="128" r="2"/>
<circle id="XMLID_49_" style="opacity:0.58;fill:#FFFFFF;" cx="40.472" cy="128" r="2"/>
<circle id="XMLID_44_" style="opacity:0.54;fill:#FFFFFF;" cx="184.472" cy="150" r="2"/>
<circle id="XMLID_48_" style="opacity:0.25;fill:#FFFFFF;" cx="217.472" cy="156" r="2"/>
</svg>
