<?xml version="1.0" encoding="iso-8859-1"?>
<!-- Generator: Adobe Illustrator 19.0.0, SVG Export Plug-In . SVG Version: 6.00 Build 0)  -->
<svg version="1.1" id="&#x56FE;&#x5C42;_1" xmlns="http://www.w3.org/2000/svg" xmlns:xlink="http://www.w3.org/1999/xlink" x="0px"
	 y="0px" viewBox="0 0 256 256" style="enable-background:new 0 0 256 256;" xml:space="preserve">
<path id="XMLID_686_" style="fill:#276296;" d="M152,240h-48c-48.601,0-88-39.399-88-88v-48c0-48.601,39.399-88,88-88h48
	c48.601,0,88,39.399,88,88v48C240,200.601,200.601,240,152,240z"/>
<path id="XMLID_531_" style="fill:#FFFFFF;" d="M177.132,79.958c-12.31-12.235-29.284-19.871-48.043-19.871
	c-18.756,0-35.658,7.637-47.964,19.871c-12.31,12.307-19.906,29.284-19.906,48.002c0,18.722,7.596,35.699,19.906,48.044
	c12.307,12.269,29.208,19.909,47.964,19.909c18.76,0,35.733-7.64,48.043-19.909C189.363,163.66,197,146.683,197,127.96
	C197,109.242,189.363,92.265,177.132,79.958L177.132,79.958z M169.721,168.59L169.721,168.59
	c-10.384,10.415-24.768,16.83-40.633,16.83c-15.862,0-30.173-6.415-40.588-16.83c-10.418-10.381-16.868-24.761-16.868-40.629
	c0-15.899,6.449-30.211,16.868-40.588c10.415-10.415,24.726-16.83,40.588-16.83c15.865,0,30.249,6.415,40.633,16.83
	c10.377,10.377,16.789,24.689,16.789,40.588C186.51,143.829,180.098,158.209,169.721,168.59L169.721,168.59z M135.613,119.178
	L135.613,119.178c-2.409-0.818-4.817-1.707-6.86-2.782c-3.781-2.001-3.555-6.34,0.671-6.34c1.187,0,2.262,0.448,3.076,1.259
	c1.112,0.965,2.077,2.597,2.819,4.783c0.554,1.704,2.408,2.669,4.15,1.93l9.638-3.89c1.557-0.633,2.446-2.265,1.929-3.859
	c-1.338-4.595-3.524-8.191-6.525-10.86c-2.412-2.077-5.337-3.558-8.714-4.339v-3.928c0-1.741-1.369-3.113-3.148-3.113h-7.048
	c-1.776,0-3.182,1.372-3.182,3.113v3.928c-1.892,0.483-3.6,1.187-5.194,1.855c-2.296,1.297-4.225,2.966-5.71,5.006
	c-2.816,3.78-4.297,8.262-4.297,13.083c0,3.411,0.742,6.822,2.446,9.864c3.411,5.857,8.821,8.191,15.051,10.23
	c3.189,1.184,6.449,2.224,8.673,4.003c0.147,0.147,0.373,0.407,0.445,0.664c1.334,3.189-1.704,4.93-4.444,4.93
	c-2.005,0-3.637-0.479-4.674-1.516c-1.112-1.002-1.93-2.744-2.333-4.971v-0.147l-0.079-0.294c-0.404-1.707-2.111-2.669-3.818-2.227
	l-10.897,2.857c-1.629,0.404-2.669,2.039-2.296,3.709c1.259,5.522,3.555,9.857,6.894,13.008c2.744,2.669,6.152,4.376,10.234,5.193
	v4.52c0,1.704,1.406,3.079,3.182,3.079h7.048c1.779,0,3.148-1.375,3.148-3.079v-4.52c2.039-0.482,3.821-1.04,5.488-1.782
	c2.556-1.187,4.783-2.744,6.487-4.745l0,0c3.483-3.894,5.187-8.673,5.187-14.418C152.96,127.889,145.436,122.661,135.613,119.178
	L135.613,119.178z M143.103,149.724L143.103,149.724h-0.038c-6.559,7.373-20.426,7.117-26.653,0.886
	c-1.817-1.704-3.185-4.037-4.225-6.928l4.858-1.225c1.923,5.56,6.261,8.488,12.344,8.488c1.629,0,3.182-0.222,4.444-0.63
	c1.485-0.52,2.706-1.221,3.709-2.299c2.669-2.741,3.555-7.082,2.077-10.675c-0.52-1.262-1.338-2.262-2.374-3.113
	c-3.113-2.45-6.86-3.746-10.528-4.968c-2.669-0.89-5.262-1.782-7.339-3.079c-0.893-0.482-1.632-1.184-2.371-1.851
	c-2.487-2.593-3.524-5.82-3.524-9.306c0-3.445,1.037-6.634,3.079-9.378c6.521-8.896,23.536-7.041,27.577,3.671l-4.154,1.741
	c-0.958-1.779-1.998-3.226-3.223-4.41c-2.039-1.892-4.523-2.857-7.339-2.857c-5.375,0-9.789,4.041-9.789,9.453
	c0,7.414,8.232,9.86,13.901,11.862c5.043,1.779,11.27,4.557,12.755,10.493c0.257,1.15,0.445,2.409,0.445,3.781
	C146.736,143.566,145.515,146.98,143.103,149.724L143.103,149.724z"/>
<circle id="XMLID_991_" style="opacity:0.18;fill:#FFFFFF;" cx="181.472" cy="212" r="4"/>
<circle id="XMLID_988_" style="opacity:0.18;fill:#FFFFFF;" cx="82.472" cy="51" r="4"/>
<circle id="XMLID_989_" style="opacity:0.58;fill:#FFFFFF;" cx="107.472" cy="88" r="2"/>
<circle id="XMLID_992_" style="opacity:0.58;fill:#FFFFFF;" cx="45.472" cy="142" r="2"/>
<circle id="XMLID_993_" style="opacity:0.58;fill:#FFFFFF;" cx="61.472" cy="194" r="2"/>
<circle id="XMLID_987_" style="opacity:0.58;fill:#FFFFFF;" cx="207.472" cy="73" r="2"/>
<circle id="XMLID_990_" style="opacity:0.58;fill:#FFFFFF;" cx="164.472" cy="150" r="2"/>
</svg>
