<?xml version="1.0" encoding="utf-8"?>
<!-- Generator: Adobe Illustrator 19.0.1, SVG Export Plug-In . SVG Version: 6.00 Build 0)  -->
<!DOCTYPE svg PUBLIC "-//W3C//DTD SVG 1.1//EN" "http://www.w3.org/Graphics/SVG/1.1/DTD/svg11.dtd">
<svg version="1.1" id="图层_1" xmlns="http://www.w3.org/2000/svg" xmlns:xlink="http://www.w3.org/1999/xlink" x="0px" y="0px"
	 viewBox="0 0 1024 1024" style="enable-background:new 0 0 1024 1024;" xml:space="preserve">
<g>
	<path d="M746.8,286.2C684.1,223.5,600.7,189,512,189c-88.7,0-172.1,34.5-234.8,97.2C214.5,348.9,180,432.3,180,521
		c0,88.7,34.5,172.1,97.2,234.8S423.3,853,512,853c88.7,0,172-34.5,234.8-97.2C809.5,693,844,609.7,844,521
		C844,432.3,809.5,348.9,746.8,286.2z M512,829c-169.8,0-308-138.2-308-308c0-169.8,138.2-308,308-308c169.8,0,308,138.2,308,308
		C820,690.8,681.8,829,512,829z"/>
	<path d="M530.1,567.3c-12-13.6-26.4-24.4-42.4-32c17.6-15.8,28.1-38.5,28.1-62.7c0-46.6-38-84.5-84.8-84.5
		c-46.8,0-84.8,37.9-84.8,84.5c0,24.2,10.5,46.9,28.1,62.7c-16,7.6-30.4,18.5-42.4,32c-17.7,20-29,44.5-32.8,71
		c-0.5,3.4,0.5,6.9,2.8,9.6c2.3,2.6,5.6,4.1,9.1,4.1h240c3.5,0,6.8-1.5,9.1-4.1c2.3-2.6,3.3-6.1,2.8-9.6
		C559.1,611.8,547.8,587.3,530.1,567.3z M325.7,628c10.3-38,39.7-67.9,77.9-78c4.9-1.3,8.5-5.5,8.9-10.6s-2.3-9.8-6.9-11.9
		c-21.5-9.9-35.4-31.4-35.4-54.9c0-33.4,27.3-60.5,60.8-60.5s60.8,27.2,60.8,60.5c0,23.5-13.9,45-35.4,54.9
		c-4.6,2.1-7.4,6.9-6.9,11.9s4,9.3,8.9,10.6c38.2,10.1,67.6,40,77.9,78H325.7z"/>
	<path d="M711,408H589c-6.6,0-12,5.4-12,12s5.4,12,12,12h122c6.6,0,12-5.4,12-12S717.6,408,711,408z"/>
	<path d="M711,628H589c-6.6,0-12,5.4-12,12s5.4,12,12,12h122c6.6,0,12-5.4,12-12S717.6,628,711,628z"/>
	<path d="M711,518H589c-6.6,0-12,5.4-12,12s5.4,12,12,12h122c6.6,0,12-5.4,12-12S717.6,518,711,518z"/>
</g>
</svg>
