<?xml version="1.0" encoding="utf-8"?>
<!-- Generator: Adobe Illustrator 19.0.1, SVG Export Plug-In . SVG Version: 6.00 Build 0)  -->
<!DOCTYPE svg PUBLIC "-//W3C//DTD SVG 1.1//EN" "http://www.w3.org/Graphics/SVG/1.1/DTD/svg11.dtd">
<svg version="1.1" id="图层_1" xmlns="http://www.w3.org/2000/svg" xmlns:xlink="http://www.w3.org/1999/xlink" x="0px" y="0px"
	 viewBox="0 0 1024 1024" style="enable-background:new 0 0 1024 1024;" xml:space="preserve">
<g>
	<path d="M813,317H335.4l103.3-103.3c9.4-9.4,9.4-24.6,0-33.9c-9.4-9.4-24.6-9.4-33.9,0L260.5,324c-9.4,9.4-9.4,24.6,0,33.9
		l144.3,144.3c4.7,4.7,10.8,7,17,7s12.3-2.3,17-7c9.4-9.4,9.4-24.6,0-33.9L335.4,365H813c13.3,0,24-10.7,24-24S826.3,317,813,317z"
		/>
	<path d="M621.2,535c-9.4-9.4-24.6-9.4-33.9,0c-9.4,9.4-9.4,24.6,0,33.9l103.3,103.3H213c-13.3,0-24,10.7-24,24s10.7,24,24,24h477.6
		L587.3,823.5c-9.4,9.4-9.4,24.6,0,33.9c4.7,4.7,10.8,7,17,7c6.1,0,12.3-2.3,17-7l144.3-144.3c9.4-9.4,9.4-24.6,0-33.9L621.2,535z"
		/>
</g>
</svg>
