<?xml version="1.0" encoding="utf-8"?>
<!-- Generator: Adobe Illustrator 19.0.1, SVG Export Plug-In . SVG Version: 6.00 Build 0)  -->
<!DOCTYPE svg PUBLIC "-//W3C//DTD SVG 1.1//EN" "http://www.w3.org/Graphics/SVG/1.1/DTD/svg11.dtd">
<svg version="1.1" id="图层_1" xmlns="http://www.w3.org/2000/svg" xmlns:xlink="http://www.w3.org/1999/xlink" x="0px" y="0px"
	 viewBox="0 0 1024 1024" style="enable-background:new 0 0 1024 1024;" xml:space="preserve">
<g id="收藏">
</g>
<path d="M512,229c-160.2,0-290,129.8-290,290s129.8,290,290,290s290-129.8,290-290S672.2,229,512,229z M700.1,707.1
	c-24.4,24.4-52.9,43.6-84.6,57C582.8,778,547.9,785,512,785s-70.8-7-103.5-20.9c-31.7-13.4-60.1-32.6-84.6-57
	c-24.4-24.4-43.6-52.9-57-84.6C253,589.8,246,554.9,246,519s7-70.8,20.9-103.5c13.4-31.7,32.6-60.1,57-84.6
	c24.4-24.4,52.9-43.6,84.6-57C441.2,260,476.1,253,512,253s70.8,7,103.5,20.9c31.7,13.4,60.1,32.6,84.6,57
	c24.4,24.4,43.6,52.9,57,84.6C771,448.2,778,483.1,778,519s-7,70.8-20.9,103.5C743.7,654.2,724.5,682.7,700.1,707.1z"/>
</svg>
