<?xml version="1.0" encoding="utf-8"?>
<!-- Generator: Adobe Illustrator 19.0.1, SVG Export Plug-In . SVG Version: 6.00 Build 0)  -->
<!DOCTYPE svg PUBLIC "-//W3C//DTD SVG 1.1//EN" "http://www.w3.org/Graphics/SVG/1.1/DTD/svg11.dtd">
<svg version="1.1" id="图层_1" xmlns="http://www.w3.org/2000/svg" xmlns:xlink="http://www.w3.org/1999/xlink" x="0px" y="0px"
	 viewBox="0 0 1024 1024" style="enable-background:new 0 0 1024 1024;" xml:space="preserve">
<g>
	<path d="M638.7,561.7l225.7,202.6c0,0-108.9,118.4-333.3-95.5"/>
	<path d="M265,781.8C203.3,781.6,153.3,732,153.5,671c0.2-61,50.3-110.4,112.1-110.2c61.8,0.2,111.7,49.7,111.5,110.8
		C377,732.6,326.8,781.9,265,781.8z"/>
	<path d="M265.8,474.3c-61.8-0.2-111.7-49.7-111.5-110.8c0.2-61,50.3-110.4,112.1-110.2S378.1,303,377.9,364.1
		S327.6,474.4,265.8,474.3z"/>
	<path d="M663.7,262.3L361.5,519.3L457,633.2l417.5-343.7C874.5,289.5,775,216,663.7,262.3z M498.6,536.7c-17,0-30.8-13.7-30.8-30.6
		c0-16.8,13.9-30.5,30.9-30.4c17,0,30.8,13.7,30.8,30.6C529.5,523.2,515.7,536.8,498.6,536.7z"/>
</g>
</svg>
