<?xml version="1.0" encoding="utf-8"?>
<!-- Generator: Adobe Illustrator 19.0.1, SVG Export Plug-In . SVG Version: 6.00 Build 0)  -->
<!DOCTYPE svg PUBLIC "-//W3C//DTD SVG 1.1//EN" "http://www.w3.org/Graphics/SVG/1.1/DTD/svg11.dtd">
<svg version="1.1" id="图层_1" xmlns="http://www.w3.org/2000/svg" xmlns:xlink="http://www.w3.org/1999/xlink" x="0px" y="0px"
	 viewBox="0 0 1024 1024" style="enable-background:new 0 0 1024 1024;" xml:space="preserve">
<g id="收藏">
</g>
<path d="M726.1,240H295.9c-42.4,0-76.9,35.4-76.9,78.9v267.6c0,43.5,34.5,78.5,76.9,78.5h146c6.6,0,12-5.4,12-12c0-6.6-5.4-12-12-12
	h-146c-29.2,0-52.9-24.2-52.9-54.5V318.9c0-30.3,23.7-54.9,52.9-54.9h430.2c29.2,0,52.9,24.6,52.9,54.9v267.6
	c0,30.3-23.7,54.5-52.9,54.5H665v104.1L552.9,644.5c-4.9-4.4-12.4-4-16.8,0.9c-4.4,4.9-4.2,12.5,0.8,16.9L689,798.9V665h37.1
	c42.4,0,76.9-35,76.9-78.5V318.9C803,275.4,768.5,240,726.1,240z"/>
</svg>
