<?xml version="1.0" encoding="utf-8"?>
<!-- Generator: Adobe Illustrator 18.1.1, SVG Export Plug-In . SVG Version: 6.00 Build 0)  -->
<svg version="1.1" id="图层_1" xmlns="http://www.w3.org/2000/svg" xmlns:xlink="http://www.w3.org/1999/xlink" x="0px" y="0px"
	 viewBox="0 0 1024 1024" enable-background="new 0 0 1024 1024" xml:space="preserve">
<g id="收藏">
</g>
<g>
	<path d="M702,825.7L529.7,671.3c-9.9-8.8-10.7-24-1.9-33.9c8.8-9.9,24-10.7,33.9-1.9l92.3,82.7l0-88.8h72.7
		c22.5,0,40.9-19.2,40.9-42.9V318.9c0-23.7-18.3-42.9-40.9-42.9H296.4c-22.5,0-40.9,19.2-40.9,42.9v267.6
		c0,23.7,18.3,42.9,40.9,42.9h146c13.3,0,24,10.7,24,24s-10.7,24-24,24h-146c-49,0-88.9-40.8-88.9-90.9V318.9
		c0-50.1,39.9-90.9,88.9-90.9h430.2c49,0,88.9,40.8,88.9,90.9v267.6c0,50.1-39.9,90.9-88.9,90.9H702L702,825.7z"/>
</g>
</svg>
