<?xml version="1.0" encoding="utf-8"?>
<!-- Generator: Adobe Illustrator 19.2.0, SVG Export Plug-In . SVG Version: 6.00 Build 0)  -->
<!DOCTYPE svg PUBLIC "-//W3C//DTD SVG 1.1//EN" "http://www.w3.org/Graphics/SVG/1.1/DTD/svg11.dtd">
<svg version="1.1" id="图层_1" xmlns="http://www.w3.org/2000/svg" xmlns:xlink="http://www.w3.org/1999/xlink" x="0px" y="0px"
	 viewBox="0 0 1024 1024" style="enable-background:new 0 0 1024 1024;" xml:space="preserve">
<style type="text/css">
	.st0{fill:#ED324D;}
	.st1{fill:#CE204A;}
	.st2{fill:#3C3C3C;}
	.st3{fill:#65AF34;}
	.st4{fill:#1CB3F2;}
	.st5{fill:#009889;}
	.st6{fill:#FF5E1E;}
	.st7{fill:#9BCC06;}
	.st8{fill:#C9EF26;}
	.st9{fill:#3399FF;}
	.st10{fill:#8D66D8;}
	.st11{fill:#00CECC;}
	.st12{fill:#18AA98;}
	.st13{fill:#27C45B;}
	.st14{fill:none;stroke:#3C3C3C;stroke-width:24;stroke-linecap:round;stroke-linejoin:round;stroke-miterlimit:10;}
</style>
<g>
	<path d="M274,785c-8.2,0-16.4-3.1-22.6-9.4c-12.5-12.5-12.5-32.8,0-45.3l460-460c12.5-12.5,32.8-12.5,45.3,0
		c12.5,12.5,12.5,32.8,0,45.3l-460,460C290.4,781.9,282.2,785,274,785z"/>
</g>
<g>
	<path d="M734,785c-8.2,0-16.4-3.1-22.6-9.4l-460-460c-12.5-12.5-12.5-32.8,0-45.3c12.5-12.5,32.8-12.5,45.3,0l460,460
		c12.5,12.5,12.5,32.8,0,45.3C750.4,781.9,742.2,785,734,785z"/>
</g>
</svg>
