<?xml version="1.0" encoding="utf-8"?>
<!-- Generator: Adobe Illustrator 19.0.1, SVG Export Plug-In . SVG Version: 6.00 Build 0)  -->
<!DOCTYPE svg PUBLIC "-//W3C//DTD SVG 1.1//EN" "http://www.w3.org/Graphics/SVG/1.1/DTD/svg11.dtd">
<svg version="1.1" id="图层_1" xmlns="http://www.w3.org/2000/svg" xmlns:xlink="http://www.w3.org/1999/xlink" x="0px" y="0px"
	 viewBox="0 0 1024 1024" style="enable-background:new 0 0 1024 1024;" xml:space="preserve">
<g id="收藏">
</g>
<path d="M512,202c-160.2,0-290,129.8-290,290s129.8,290,290,290s290-129.8,290-290S672.2,202,512,202z M640.5,603.5
	c4.7,4.7,4.7,12.3,0,17c-2.3,2.3-5.4,3.5-8.5,3.5s-6.1-1.2-8.5-3.5L512,509L400.5,620.5c-2.3,2.3-5.4,3.5-8.5,3.5s-6.1-1.2-8.5-3.5
	c-4.7-4.7-4.7-12.3,0-17L495,492L383.5,380.5c-4.7-4.7-4.7-12.3,0-17c4.7-4.7,12.3-4.7,17,0L512,475l111.5-111.5
	c4.7-4.7,12.3-4.7,17,0c4.7,4.7,4.7,12.3,0,17L529,492L640.5,603.5z"/>
</svg>
