<?xml version="1.0" encoding="utf-8"?>
<!-- Generator: Adobe Illustrator 19.0.1, SVG Export Plug-In . SVG Version: 6.00 Build 0)  -->
<!DOCTYPE svg PUBLIC "-//W3C//DTD SVG 1.1//EN" "http://www.w3.org/Graphics/SVG/1.1/DTD/svg11.dtd">
<svg version="1.1" id="图层_1" xmlns="http://www.w3.org/2000/svg" xmlns:xlink="http://www.w3.org/1999/xlink" x="0px" y="0px"
	 viewBox="0 0 1024 1024" style="enable-background:new 0 0 1024 1024;" xml:space="preserve">
<g>
	<path d="M677,211c-11.6-6.5-26.2-2.3-32.7,9.3l-323.9,580c-6.5,11.6-2.3,26.2,9.3,32.7c3.7,2.1,7.7,3.1,11.7,3.1
		c8.4,0,16.6-4.4,21-12.3l323.9-580C692.7,232.1,688.6,217.5,677,211z"/>
	<path d="M391.5,493.7C414.4,462.2,427,420.8,427,377s-12.6-85.2-35.5-116.7c-24.6-33.8-57.9-52.3-94-52.3s-69.4,18.6-94,52.3
		C180.6,291.8,168,333.2,168,377s12.6,85.2,35.5,116.7c24.6,33.8,57.9,52.3,94,52.3S366.9,527.4,391.5,493.7z M297.5,498
		c-20.3,0-39.9-11.6-55.2-32.6c-17-23.3-26.3-54.7-26.3-88.4s9.3-65.1,26.3-88.4c15.3-21,34.9-32.6,55.2-32.6s39.9,11.6,55.2,32.6
		c17,23.3,26.3,54.7,26.3,88.4s-9.3,65.1-26.3,88.4C337.4,486.4,317.8,498,297.5,498z"/>
	<path d="M820.5,550.3c-24.6-33.8-57.9-52.3-94-52.3s-69.4,18.6-94,52.3C609.6,581.8,597,623.2,597,667s12.6,85.2,35.5,116.7
		c24.6,33.8,57.9,52.3,94,52.3s69.4-18.6,94-52.3C843.4,752.2,856,710.8,856,667S843.4,581.8,820.5,550.3z M781.7,755.4
		c-15.3,21-34.9,32.6-55.2,32.6s-39.9-11.6-55.2-32.6c-17-23.3-26.3-54.7-26.3-88.4s9.3-65.1,26.3-88.4c15.3-21,34.9-32.6,55.2-32.6
		s39.9,11.6,55.2,32.6c17,23.3,26.3,54.7,26.3,88.4S798.7,732.1,781.7,755.4z"/>
</g>
</svg>
