<?xml version="1.0" encoding="utf-8"?>
<!-- Generator: Adobe Illustrator 19.0.1, SVG Export Plug-In . SVG Version: 6.00 Build 0)  -->
<!DOCTYPE svg PUBLIC "-//W3C//DTD SVG 1.1//EN" "http://www.w3.org/Graphics/SVG/1.1/DTD/svg11.dtd">
<svg version="1.1" id="图层_1" xmlns="http://www.w3.org/2000/svg" xmlns:xlink="http://www.w3.org/1999/xlink" x="0px" y="0px"
	 viewBox="0 0 1024 1024" style="enable-background:new 0 0 1024 1024;" xml:space="preserve">
<style type="text/css">
	.st0{fill-rule:evenodd;clip-rule:evenodd;fill:url(#SVGID_1_);}
	.st1{fill-rule:evenodd;clip-rule:evenodd;fill:#FFFFFF;}
	.st2{fill:#5CD8CE;}
	.st3{fill:#EF2F2E;}
	.st4{fill:#F5812A;}
	.st5{fill:#F9E836;}
	.st6{fill:#86D35E;}
	.st7{fill:#51DDF4;}
	.st8{fill:#5290DB;}
	.st9{fill:#7371D3;}
</style>
<g id="收藏">
</g>
<g>
	<path d="M664.7,400.8l-29.4-29.4c-17.7-17.7-44.6-19.4-60-4l-35.8,35.8c-4.7,4.7-4.7,12.3,0,17l76.5,76.5c2.3,2.3,5.3,3.5,8.5,3.5
		s6.2-1.3,8.5-3.5l35.8-35.8c7.7-7.7,11.4-18.7,10.3-30.3C678,419.6,672.9,409,664.7,400.8z M651.7,443.9l-27.3,27.3l-59.5-59.5
		l27.3-27.3c6-6,17.9-4.2,26.1,4l29.4,29.4c4.2,4.2,6.9,9.7,7.4,15C655.4,435.4,655.3,440.3,651.7,443.9z"/>
	<path d="M521.5,438.2c-4.7-4.7-12.3-4.7-17,0L375.1,567.5c-0.3,0.3-0.5,0.5-0.7,0.8c-0.1,0.1-0.2,0.2-0.2,0.3
		c-0.1,0.2-0.3,0.4-0.4,0.6c-0.1,0.1-0.2,0.2-0.2,0.4c-0.1,0.2-0.2,0.4-0.3,0.6c-0.1,0.1-0.1,0.2-0.2,0.4c-0.1,0.3-0.3,0.6-0.4,0.9
		c-0.1,0.1-0.1,0.3-0.2,0.4c-0.1,0.2-0.1,0.4-0.2,0.6c0,0.1-0.1,0.3-0.1,0.5c-0.1,0.2-0.1,0.4-0.1,0.6c0,0.1-0.1,0.3-0.1,0.4
		c0,0.1,0,0.1,0,0.2l-15.5,91.9c-0.6,3.8,0.6,7.7,3.3,10.5c2.3,2.3,5.3,3.5,8.5,3.5c0.7,0,1.3-0.1,2-0.2l91.9-15.5
		c0.1,0,0.1,0,0.2,0c0.1,0,0.3-0.1,0.4-0.1c0.2,0,0.4-0.1,0.6-0.1c0.1,0,0.3-0.1,0.4-0.1c0.2-0.1,0.4-0.1,0.6-0.2
		c0.1-0.1,0.3-0.1,0.4-0.2c0.3-0.1,0.6-0.3,0.9-0.4c0.1-0.1,0.2-0.1,0.4-0.2c0.2-0.1,0.4-0.2,0.6-0.3c0.1-0.1,0.2-0.2,0.4-0.2
		c0.2-0.1,0.4-0.3,0.6-0.4c0.1-0.1,0.2-0.2,0.3-0.2c0.3-0.2,0.6-0.5,0.8-0.7l129.4-129.4c2.3-2.3,3.5-5.3,3.5-8.5s-1.3-6.2-3.5-8.5
		L521.5,438.2z M391.6,601l43.5,43.5l-52.4,8.8L391.6,601z M460.1,635.5L400.6,576L513,463.6l59.5,59.5L460.1,635.5z"/>
	<path d="M718.5,318.5c-57-57-132.9-88.5-213.5-88.5s-156.5,31.4-213.5,88.5c-57,57-88.5,132.9-88.5,213.5s31.4,156.5,88.5,213.5
		c57,57,132.9,88.5,213.5,88.5s156.5-31.4,213.5-88.5c57-57,88.5-132.9,88.5-213.5S775.6,375.5,718.5,318.5z M701.6,728.6
		C649.1,781.1,579.3,810,505,810s-144.1-28.9-196.6-81.4C255.9,676.1,227,606.3,227,532s28.9-144.1,81.4-196.6
		C360.9,282.9,430.7,254,505,254s144.1,28.9,196.6,81.4C754.1,387.9,783,457.7,783,532S754.1,676.1,701.6,728.6z"/>
</g>
</svg>
