<?xml version="1.0" encoding="utf-8"?>
<!-- Generator: Adobe Illustrator 19.2.0, SVG Export Plug-In . SVG Version: 6.00 Build 0)  -->
<!DOCTYPE svg PUBLIC "-//W3C//DTD SVG 1.1//EN" "http://www.w3.org/Graphics/SVG/1.1/DTD/svg11.dtd">
<svg version="1.1" id="图层_1" xmlns="http://www.w3.org/2000/svg" xmlns:xlink="http://www.w3.org/1999/xlink" x="0px" y="0px"
	 viewBox="0 0 1024 1024" style="enable-background:new 0 0 1024 1024;" xml:space="preserve">
<style type="text/css">
	.st0{fill:#ED324D;}
	.st1{fill:#CE204A;}
	.st2{fill:#3C3C3C;}
	.st3{fill:#65AF34;}
	.st4{fill:#1CB3F2;}
	.st5{fill:#009889;}
	.st6{fill:#FF5E1E;}
	.st7{fill:#9BCC06;}
	.st8{fill:#C9EF26;}
	.st9{fill:#3399FF;}
	.st10{fill:#8D66D8;}
	.st11{fill:#00CECC;}
</style>
<g>
	<path d="M775.1,868.7L590.4,725H258.5c-33.1,0-60-26.9-60-60V290.7c0-33.1,26.9-60,60-60h301.9v24H258.5c-19.9,0-36,16.2-36,36
		v374.3c0,19.9,16.1,36,36,36h340L742,812.5L724.4,701h78.1c19.9,0,36-16.2,36-36V446.3h24v218.6c0,33.1-26.9,60-60,60h-50
		L775.1,868.7z"/>
</g>
<g>
	<path d="M434.7,619.7l8.3-126.2l307.9-309.9L866.5,300L558.7,609.7L434.7,619.7z M466.3,504l-5.9,89.5l87.5-7L832.6,300l-81.8-82.3
		L466.3,504z"/>
</g>
</svg>
