<?xml version="1.0" encoding="utf-8"?>
<!-- Generator: Adobe Illustrator 19.0.1, SVG Export Plug-In . SVG Version: 6.00 Build 0)  -->
<!DOCTYPE svg PUBLIC "-//W3C//DTD SVG 1.1//EN" "http://www.w3.org/Graphics/SVG/1.1/DTD/svg11.dtd">
<svg version="1.1" id="图层_1" xmlns="http://www.w3.org/2000/svg" xmlns:xlink="http://www.w3.org/1999/xlink" x="0px" y="0px"
	 viewBox="0 0 1024 1024" style="enable-background:new 0 0 1024 1024;" xml:space="preserve">
<g id="收藏">
</g>
<path d="M768.5,743.5L636.6,611.7c37-41,57.2-93.4,57.2-149c0-59.5-23.2-115.4-65.3-157.5c-42.1-42.1-98.1-65.2-157.6-65.2
	c-59.5,0-115.5,23.2-157.6,65.2c-42.1,42.1-65.3,98-65.3,157.5s23.2,115.4,65.3,157.5c42.1,42.1,98.1,65.2,157.6,65.2
	c55.4,0,107.7-20.1,148.7-56.8l132,131.8c2.3,2.3,5.4,3.5,8.5,3.5c3.1,0,6.1-1.2,8.5-3.5C773.2,755.8,773.2,748.2,768.5,743.5z
	 M330.3,603.2c-37.6-37.5-58.3-87.4-58.3-140.5s20.7-103,58.3-140.5c38.8-38.7,89.7-58.1,140.7-58.1s101.9,19.4,140.7,58.1
	c37.6,37.5,58.3,87.4,58.3,140.5c0,50.8-19,98.8-53.6,135.7c-2.4,0.4-4.7,1.5-6.5,3.3c-1.8,1.8-2.9,4.1-3.3,6.5
	C528.4,680.6,406.1,679,330.3,603.2z"/>
</svg>
