<?xml version="1.0" encoding="utf-8"?>
<!-- Generator: Adobe Illustrator 19.2.0, SVG Export Plug-In . SVG Version: 6.00 Build 0)  -->
<!DOCTYPE svg PUBLIC "-//W3C//DTD SVG 1.1//EN" "http://www.w3.org/Graphics/SVG/1.1/DTD/svg11.dtd">
<svg version="1.1" id="图层_1" xmlns="http://www.w3.org/2000/svg" xmlns:xlink="http://www.w3.org/1999/xlink" x="0px" y="0px"
	 viewBox="0 0 1024 1024" style="enable-background:new 0 0 1024 1024;" xml:space="preserve">
<style type="text/css">
	.st0{fill:#ED324D;}
	.st1{fill:#CE204A;}
	.st2{fill:#3C3C3C;}
	.st3{fill:#65AF34;}
	.st4{fill:#1CB3F2;}
	.st5{fill:#009889;}
	.st6{fill:#FF5E1E;}
	.st7{fill:#9BCC06;}
	.st8{fill:#C9EF26;}
	.st9{fill:#3399FF;}
	.st10{fill:#8D66D8;}
	.st11{fill:#00CECC;}
</style>
<g>
	<path d="M736.8,286.9c-62.7-62.7-146.1-97.2-234.8-97.2s-172.1,34.5-234.8,97.2C204.5,349.6,170,433,170,521.6
		c0,88.7,34.5,172.1,97.2,234.8c62.7,62.7,146.1,97.2,234.8,97.2s172.1-34.5,234.8-97.2c62.7-62.7,97.2-146.1,97.2-234.8
		C834,433,799.5,349.6,736.8,286.9z M502,829.6c-169.8,0-308-138.2-308-308c0-169.8,138.2-308,308-308s308,138.2,308,308
		C810,691.5,671.8,829.6,502,829.6z"/>
	<path d="M556.4,474c-1.1-2-2.8-3.7-4.8-4.8L357.8,363.1c-4.7-2.6-10.5-1.7-14.2,2c-3.8,3.8-4.6,9.5-2.1,14.2l103.4,191.2
		c0,0.1,0.1,0.1,0.1,0.1c0.2,0.4,0.5,0.8,0.7,1.2c0,0.1,0.1,0.1,0.1,0.2c0.3,0.4,0.5,0.7,0.9,1c0,0,0.1,0.1,0.1,0.1
		c0.1,0.1,0.2,0.2,0.3,0.3c0.3,0.3,0.6,0.5,0.9,0.8c0.1,0.1,0.2,0.2,0.3,0.2c0.4,0.3,0.9,0.6,1.4,0.9l196.5,108.7
		c1.8,1,3.8,1.5,5.8,1.5c3.1,0,6.2-1.2,8.5-3.5c3.8-3.8,4.6-9.6,2.1-14.3L556.4,474z M525.7,482.3l-67.2,63.1l-76.7-141.8
		L525.7,482.3z M475.6,562.3l67.3-63.2l78.8,144L475.6,562.3z"/>
</g>
</svg>
