<?xml version="1.0" encoding="utf-8"?>
<!-- Generator: Adobe Illustrator 19.0.0, SVG Export Plug-In . SVG Version: 6.00 Build 0)  -->
<svg version="1.1" id="NavigatorExpand_x5F_square" xmlns="http://www.w3.org/2000/svg" xmlns:xlink="http://www.w3.org/1999/xlink"
	 x="0px" y="0px" viewBox="0 0 1024 1024" style="enable-background:new 0 0 1024 1024;" xml:space="preserve">
<style type="text/css">
	.st0{fill:#FFFFFF;}
</style>
<g id="XMLID_9_">
	<path id="XMLID_20_" class="st0" d="M438,496h-94c-32,0-58-26-58-58v-94c0-32,26-58,58-58h94c32,0,58,26,58,58v94
		C496,470,470,496,438,496z M344,318c-14.3,0-26,11.7-26,26v94c0,14.3,11.7,26,26,26h94c14.3,0,26-11.7,26-26v-94
		c0-14.3-11.7-26-26-26H344z"/>
</g>
<g id="XMLID_2_">
	<path id="XMLID_19_" class="st0" d="M680,496h-94c-32,0-58-26-58-58v-94c0-32,26-58,58-58h94c8.8,0,16,7.2,16,16s-7.2,16-16,16h-94
		c-14.3,0-26,11.7-26,26v94c0,14.3,11.7,26,26,26h94c14.3,0,26-11.7,26-26v-94c0-8.8,7.2-16,16-16s16,7.2,16,16v94
		C738,470,712,496,680,496z"/>
</g>
<g id="XMLID_5_">
	<path id="XMLID_17_" class="st0" d="M438,796H286c-8.8,0-16-7.2-16-16s7.2-16,16-16h152c14.3,0,26-11.7,26-26V586
		c0-14.3-11.7-26-26-26H286c-14.3,0-26,11.7-26,26v152c0,8.8-7.2,16-16,16s-16-7.2-16-16V586c0-32,26-58,58-58h152c32,0,58,26,58,58
		v152C496,770,470,796,438,796z"/>
</g>
<g id="XMLID_12_">
	<path id="XMLID_4_" class="st0" d="M680,738h-94c-32,0-58-26-58-58v-94c0-32,26-58,58-58h94c32,0,58,26,58,58v94
		C738,712,712,738,680,738z M586,560c-14.3,0-26,11.7-26,26v94c0,14.3,11.7,26,26,26h94c14.3,0,26-11.7,26-26v-94
		c0-14.3-11.7-26-26-26H586z"/>
</g>
</svg>
