<?xml version="1.0" encoding="utf-8"?>
<!-- Generator: Adobe Illustrator 19.0.1, SVG Export Plug-In . SVG Version: 6.00 Build 0)  -->
<!DOCTYPE svg PUBLIC "-//W3C//DTD SVG 1.1//EN" "http://www.w3.org/Graphics/SVG/1.1/DTD/svg11.dtd">
<svg version="1.1" id="图层_1" xmlns="http://www.w3.org/2000/svg" xmlns:xlink="http://www.w3.org/1999/xlink" x="0px" y="0px"
	 viewBox="0 0 1024 1024" style="enable-background:new 0 0 1024 1024;" xml:space="preserve">
<g id="收藏">
</g>
<g>
	<path d="M616,426c0,13.3,10.7,24,24,24c13.2,0,24-10.7,24-24s-10.7-24-24-24C626.7,402,616,412.8,616,426z"/>
	<path d="M804,360c-6.6,0-12,5.4-12,12v309.1L636.2,538.7l-71.8,65.6L404.2,443.7L216,603.4V352c0-18.7,17-34,38-34h471
		c6.6,0,12-5.4,12-12s-5.4-12-12-12H254c-34.2,0-62,26-62,58v368c0,32,27.8,58,62,58h500c34.2,0,62-26,62-58V372
		C816,365.4,810.6,360,804,360z M754,754H254c-21,0-38-15.3-38-34v-88c2.4-0.2,4.8-1.1,6.8-2.8l180.1-152.8l143.8,144.3l-34.7,31.7
		c-4.9,4.5-5.2,12.1-0.8,17c4.5,4.9,12.1,5.2,17,0.8l108.1-98.8l151.7,138.6c1.2,1.1,2.6,1.9,4.1,2.4v7.7C792,738.7,775,754,754,754
		z"/>
</g>
</svg>
