<?xml version="1.0" encoding="utf-8"?>
<!-- Generator: Adobe Illustrator 19.0.0, SVG Export Plug-In . SVG Version: 6.00 Build 0)  -->
<svg version="1.1" id="图层_1" xmlns="http://www.w3.org/2000/svg" xmlns:xlink="http://www.w3.org/1999/xlink" x="0px" y="0px"
	 viewBox="0 0 1024 1024" style="enable-background:new 0 0 1024 1024;" xml:space="preserve">
<style type="text/css">
	.st0{fill:#DDDDDD;}
</style>
<path class="st0" d="M869.5,411l-256-255.6c-10.8-11.2-28.8-11.2-40,0l-64.1,63.7v0.2c-10.6,11-10.6,28.6,0,39.6l26.2,26.4
	L326.1,446.8l-15.2-15.4l-1.6-1.4c-11-10.8-28.8-10.8-39.8,0l-63.4,63.5l-0.4,0.4c-11.2,11.2-11.2,29,0,40l122.3,122.7L153.7,830.9
	c-10.6,11.2-10.6,28.8,0,40c11.2,10.8,29,10.8,40,0l174.5-174.7l122.5,122.9h0.2c11.2,11,28.8,10.8,39.5,0l62.8-63l1.6-1.2
	c10.8-11.2,10.8-28.8,0-40l-17-16.6l161.5-209.6l25.6,26l1,0.4c10.8,10.8,28.8,10.8,39.6,0l62.8-62.8l1.4-1.4
	C880.5,440,880.5,422,869.5,411L869.5,411z M510.6,759.3L510.6,759.3L265.2,513.9l24.4-24.4l6.6,6.8l7.8,7.6l0.4,0.4l215.8,215.8
	l0.6,0.4v0.4l14,14L510.6,759.3L510.6,759.3z M523.8,676.2L523.8,676.2L348.5,500.7l245-189.2l119.9,119.3L523.8,676.2L523.8,676.2z
	 M785.4,455.4L785.4,455.4l-29.6-29.8L598.3,268.1l-17.8-18l-11.4-11l24.4-24.4L809.7,431L785.4,455.4L785.4,455.4z"/>
</svg>
