<?xml version="1.0" encoding="utf-8"?>
<!-- Generator: Adobe Illustrator 19.0.1, SVG Export Plug-In . SVG Version: 6.00 Build 0)  -->
<!DOCTYPE svg PUBLIC "-//W3C//DTD SVG 1.1//EN" "http://www.w3.org/Graphics/SVG/1.1/DTD/svg11.dtd">
<svg version="1.1" id="图层_1" xmlns="http://www.w3.org/2000/svg" xmlns:xlink="http://www.w3.org/1999/xlink" x="0px" y="0px"
	 viewBox="0 0 1024 1024" style="enable-background:new 0 0 1024 1024;" xml:space="preserve">
<g>
	<path d="M207.9,858.1c0,13.7,11.4,24.9,25.3,24.9h259.5V535.6H207.9V858.1z"/>
	<path d="M538.6,883h259.5c13.9,0,25.3-11.2,25.3-24.9V535.6H538.6V883z"/>
	<path d="M825,368.9H598.1c84-27.9,130-62.3,139.9-104.3c8.9-37.9-15.7-69.7-32.8-83.5c-17.1-12-34.9-18-52.9-18
		c-66.8,0-113.5,84.4-138.2,144c-38.4-77.4-82.5-97.6-115.2-99.7c-0.5,0-2.9-0.1-3.3-0.1c-13.9,0-26.9,5.5-36.6,15.4
		c-10,10.2-15.3,24.4-14.7,38.8c2.3,55.2,51.5,88.5,96,107.4H206.2c-16.8,0-30.6,13.6-30.6,30.2v92.1c0,16.6,13.8,30.2,30.6,30.2
		h286.4v-135c10.6,2.7,17.8,4,19.2,4.2c1.3,0.2,2.6,0.3,3.8,0.3c0.1,0,0.2,0,0.2,0c1.6,0,3.2-0.2,4.7-0.6c0.1,0,0.1,0,0.2,0
		c6.1-1.4,12-2.9,17.8-4.3v135.4H825c16.8,0,30.6-13.6,30.6-30.2v-92.1C855.6,382.5,841.8,368.9,825,368.9z M652.3,206.9
		c8.7,0,17.5,3.2,25.8,8.9c0.2,0.2,21.5,18.2,16.5,39c-3.5,14.4-25,49.5-144.7,82.6C572.1,280.3,611.8,206.9,652.3,206.9z
		 M388.6,259.7c-0.1-2.6,0.8-5,2.4-6.6c1.2-1.3,2.7-1.9,4.9-1.9c0,0,0.1,0,0.1,0c29.3,1.8,58.6,32.4,82.8,85.2
		C441,323.9,390.3,299.7,388.6,259.7z"/>
</g>
</svg>
