<?xml version="1.0" encoding="utf-8"?>
<!-- Generator: Adobe Illustrator 19.2.0, SVG Export Plug-In . SVG Version: 6.00 Build 0)  -->
<!DOCTYPE svg PUBLIC "-//W3C//DTD SVG 1.1//EN" "http://www.w3.org/Graphics/SVG/1.1/DTD/svg11.dtd">
<svg version="1.1" id="图层_1" xmlns="http://www.w3.org/2000/svg" xmlns:xlink="http://www.w3.org/1999/xlink" x="0px" y="0px"
	 viewBox="0 0 1024 1024" style="enable-background:new 0 0 1024 1024;" xml:space="preserve">
<style type="text/css">
	.st0{fill:#ED324D;}
	.st1{fill:#CE204A;}
	.st2{fill:#3C3C3C;}
</style>
<g>
	<path d="M559.5,844h-80c-5.9,0-10.9-4.2-11.8-10l-14.5-86.8c-18.3-5.2-35.9-12.4-52.5-21.7L328.5,776c-4.8,3.3-11.3,2.8-15.4-1.3
		L256.6,718c-4.1-4.1-4.7-10.7-1.3-15.5l51-71.3c-9.4-16.7-16.7-34.4-21.9-52.7L198,563.2c-5.7-1-9.9-6-9.9-11.8v-80
		c0-5.9,4.2-10.9,10-11.8l86.4-14.4c5.2-18.4,12.6-36.1,21.9-52.7l-50.4-72c-3.3-4.8-2.8-11.2,1.4-15.4l56.6-56.5
		c4.1-4.1,10.7-4.7,15.5-1.3l71.6,51.1c16.5-9.2,34-16.4,52.4-21.5l14.2-86.7c0.9-5.8,6-10.1,11.8-10.1h80c5.8,0,10.8,4.2,11.8,9.9
		l15.3,87.2c18.2,5.2,35.8,12.5,52.3,21.8l71.8-51.6c4.8-3.4,11.3-2.9,15.5,1.3l56.6,56.5c4.1,4.1,4.7,10.6,1.3,15.4L733,393.3
		c9.1,16.4,16.4,33.8,21.5,52l87.6,14.3c5.8,0.9,10.1,6,10.1,11.8v80c0,5.8-4.2,10.8-9.9,11.8l-87.6,15.4
		c-5.1,18.1-12.3,35.5-21.5,52l51.8,72c3.4,4.8,2.9,11.3-1.2,15.5l-56.6,56.6c-4.1,4.1-10.6,4.7-15.4,1.3l-72.6-51
		c-16.5,9.3-34,16.6-52.3,21.9l-15.5,87.2C570.3,839.8,565.3,844,559.5,844z M489.7,820h59.8l15.1-84.8c0.8-4.6,4.3-8.4,8.9-9.5
		c21.3-5.4,41.5-13.8,60-25.1c4.1-2.5,9.2-2.3,13.1,0.4l70.7,49.6l42.2-42.3l-50.4-70c-2.8-3.9-3-9.1-0.5-13.2
		c11.2-18.6,19.5-38.8,24.7-59.9c1.1-4.6,4.9-8.1,9.6-8.9l85.3-15v-59.7L743,467.7c-4.7-0.8-8.5-4.3-9.7-8.9
		c-5.3-21.1-13.6-41.3-24.8-59.9c-2.4-4.1-2.3-9.2,0.5-13.1l49.7-70.8l-42.2-42.2l-69.8,50.2c-3.9,2.8-9.1,3-13.2,0.5
		c-18.7-11.3-39-19.8-60.2-25.1c-4.6-1.1-8.1-4.9-8.9-9.6L549.4,204h-59.7l-13.8,84.4c-0.8,4.7-4.3,8.6-9,9.7
		c-21.5,5.3-41.8,13.6-60.4,24.8c-4.1,2.5-9.3,2.3-13.2-0.5l-69.6-49.7l-42.3,42.2l49,70.1c2.7,3.9,2.9,9,0.4,13.1
		c-11.4,18.8-19.8,39.2-25.2,60.6c-1.2,4.6-5,8.1-9.7,8.9l-84,14v59.8l84,14.9c4.7,0.8,8.4,4.3,9.6,8.9
		c5.3,21.3,13.8,41.7,25.2,60.5c2.5,4.1,2.3,9.3-0.5,13.2l-49.6,69.4l42.2,42.3l70.2-49.1c3.9-2.7,9-2.9,13.1-0.5
		c18.8,11.3,39.1,19.7,60.4,24.9c4.7,1.1,8.2,5,9,9.7L489.7,820z M840.1,551.4L840.1,551.4L840.1,551.4z M520.1,630.7
		c-65.4,0-118.7-53.2-118.7-118.7s53.2-118.7,118.7-118.7S638.8,446.6,638.8,512S585.6,630.7,520.1,630.7z M520.1,417.3
		c-52.2,0-94.7,42.5-94.7,94.7s42.5,94.7,94.7,94.7s94.7-42.5,94.7-94.7S572.3,417.3,520.1,417.3z"/>
</g>
</svg>
