<?xml version="1.0" encoding="utf-8"?>
<!-- Generator: Adobe Illustrator 19.0.1, SVG Export Plug-In . SVG Version: 6.00 Build 0)  -->
<!DOCTYPE svg PUBLIC "-//W3C//DTD SVG 1.1//EN" "http://www.w3.org/Graphics/SVG/1.1/DTD/svg11.dtd">
<svg version="1.1" id="图层_1" xmlns="http://www.w3.org/2000/svg" xmlns:xlink="http://www.w3.org/1999/xlink" x="0px" y="0px"
	 viewBox="0 0 1024 1024" style="enable-background:new 0 0 1024 1024;" xml:space="preserve">
<g id="收藏">
</g>
<g>
	<g>
		<path d="M673.3,788c-5.8,0-11.3-1.5-15.8-3.6l-0.9-0.5L510.1,706c-55.6,29.3-136.4,72-145.2,76.7c-0.8,0.5-1.6,1-2.5,1.4
			c-6.2,2.9-19.7,6-31.4-0.8c-11.2-6.5-16.1-19.8-12.8-34.9L346,586.5c0-0.3,0.1-0.7,0.1-1.1c-0.3-0.4-0.6-0.7-0.7-0.8l-0.4-0.4
			L228.4,469.4c-8.5-7.1-14.3-20.1-8.7-34.1c4.7-11.9,15-18.1,23-19.8l0.9-0.2l165.5-24l77.1-157.1l1.1-1.6c5.7-8,14.6-12.7,24-12.6
			c9.6,0.1,18.4,5.3,23.8,13.7l0.7,1.1l76.4,156.6l166.7,24.7c11.8,1,21.6,8.4,25.3,19.1c4.1,11.8-0.6,23.1-6.3,29.7l-0.6,0.7
			L674.5,585.9l27.8,164.7c1.8,9.7-0.2,22.8-10.9,31.2c-0.2,0.2-0.4,0.3-0.6,0.5C685.3,786.4,679.2,788,673.3,788z"/>
	</g>
</g>
</svg>
