<?xml version="1.0" encoding="utf-8"?>
<!-- Generator: Adobe Illustrator 19.0.1, SVG Export Plug-In . SVG Version: 6.00 Build 0)  -->
<!DOCTYPE svg PUBLIC "-//W3C//DTD SVG 1.1//EN" "http://www.w3.org/Graphics/SVG/1.1/DTD/svg11.dtd">
<svg version="1.1" id="图层_1" xmlns="http://www.w3.org/2000/svg" xmlns:xlink="http://www.w3.org/1999/xlink" x="0px" y="0px"
	 viewBox="0 0 1024 1024" style="enable-background:new 0 0 1024 1024;" xml:space="preserve">
<g id="收藏">
</g>
<g>
	<g>
		<path d="M664.7,788c-5.8,0-11.3-1.5-15.8-3.6l-1-0.5L501.6,706c-55.6,29.3-136.4,72-145.2,76.7c-0.8,0.5-1.6,1-2.5,1.4
			c-0.7,0.3-16.7,7.7-31.4-0.8c-11.2-6.5-16.1-19.8-12.8-34.9l27.7-161.9c0-0.3,0.1-0.7,0.1-1.1c-0.3-0.4-0.6-0.7-0.7-0.8l-0.4-0.4
			L219.8,469.4c-8.5-7.1-14.3-20.1-8.7-34.1c4.7-11.9,15-18.1,23-19.8l0.9-0.2l165.5-24l77.1-157.1l1.1-1.6
			c5.6-7.9,14.4-12.6,23.6-12.6c0.1,0,0.2,0,0.3,0c9.6,0.1,18.4,5.3,23.8,13.7l0.7,1.1l76.4,156.6l166.7,24.7
			c11.8,1,21.6,8.4,25.3,19.1c4.1,11.8-0.6,23.1-6.3,29.7l-0.6,0.7L666,585.8l0.1,0.3l-0.2-0.2l-0.1,0.1l27.8,164.7
			c1.8,9.7-0.2,22.8-10.9,31.2c-0.2,0.2-0.4,0.3-0.6,0.5C676.8,786.4,670.6,788,664.7,788z M367.5,766L367.5,766
			c-0.4,2.3-1,4.4-1.9,6.3C366.5,770.4,367.2,768.3,367.5,766z M332.2,741.3c-3.6,2-6.6,4.8-8.7,8.3
			C325.5,746.4,328.4,743.6,332.2,741.3z M522.6,662.8l118.2,62.9l-22.2-131.6c-0.7-3.5-1.9-12.5,1.1-22.5
			c3.1-10.5,10.3-17.9,13.5-20.8l94.2-92.4l-131-19.4c-4.7-0.3-13.1-1.7-21.3-7.5c-9.1-6.4-13.4-15-15.2-20L502.1,293l-57.8,117.7
			c-1.6,5.3-5.3,13-13.6,19.4c-9,6.9-19,8.4-24.1,8.7l-130.2,18.9l93.5,92.2c3.7,3.6,12.1,12.5,14.5,23.7c2,9.2,0.9,17.8,0.5,20.2
			l-0.1,0.3l-22.4,131c9.7-5.2,21.1-11.2,33-17.5c33.4-17.6,70.8-37.4,86.9-45.9c0.9-0.5,1.4-0.8,2-1.1c5.7-3.3,10-4.5,16.9-4.7
			C510.9,655.8,518.3,659.7,522.6,662.8z"/>
	</g>
</g>
</svg>
