<?xml version="1.0" encoding="utf-8"?>
<!-- Generator: Adobe Illustrator 19.2.0, SVG Export Plug-In . SVG Version: 6.00 Build 0)  -->
<!DOCTYPE svg PUBLIC "-//W3C//DTD SVG 1.1//EN" "http://www.w3.org/Graphics/SVG/1.1/DTD/svg11.dtd">
<svg version="1.1" id="图层_1" xmlns="http://www.w3.org/2000/svg" xmlns:xlink="http://www.w3.org/1999/xlink" x="0px" y="0px"
	 viewBox="0 0 1024 1024" style="enable-background:new 0 0 1024 1024;" xml:space="preserve">
<style type="text/css">
	.st0{fill:#ED324D;}
	.st1{fill:#CE204A;}
	.st2{fill:#3C3C3C;}
</style>
<g>
	<path d="M694.4,503h-360c-83.8,0-152-68.2-152-152s68.2-152,152-152h360c83.8,0,152,68.2,152,152S778.2,503,694.4,503z M334.4,223
		c-70.6,0-128,57.4-128,128s57.4,128,128,128h360c70.6,0,128-57.4,128-128s-57.4-128-128-128H334.4z"/>
</g>
<g>
	<path d="M694.4,458c-59,0-107-48-107-107s48-107,107-107s107,48,107,107S753.4,458,694.4,458z M694.4,268c-45.8,0-83,37.2-83,83
		s37.2,83,83,83s83-37.2,83-83S740.2,268,694.4,268z"/>
</g>
<g>
	<path d="M334.4,608c-45.8,0-83,37.2-83,83s37.2,83,83,83s83-37.2,83-83S380.2,608,334.4,608z"/>
	<path d="M694.4,539h-360c-83.8,0-152,68.2-152,152s68.2,152,152,152h360c83.8,0,152-68.2,152-152S778.2,539,694.4,539z M334.4,798
		c-59,0-107-48-107-107s48-107,107-107s107,48,107,107S393.4,798,334.4,798z"/>
</g>
</svg>
