<?xml version="1.0" encoding="utf-8"?>
<!-- Generator: Adobe Illustrator 19.0.1, SVG Export Plug-In . SVG Version: 6.00 Build 0)  -->
<!DOCTYPE svg PUBLIC "-//W3C//DTD SVG 1.1//EN" "http://www.w3.org/Graphics/SVG/1.1/DTD/svg11.dtd">
<svg version="1.1" id="图层_1" xmlns="http://www.w3.org/2000/svg" xmlns:xlink="http://www.w3.org/1999/xlink" x="0px" y="0px"
	 viewBox="0 0 1024 1024" style="enable-background:new 0 0 1024 1024;" xml:space="preserve">
<g id="收藏">
</g>
<g>
	<path d="M432,193h180c6.6,0,12-5.4,12-12s-5.4-12-12-12H432c-6.6,0-12,5.4-12,12S425.4,193,432,193z"/>
	<path d="M802,280H242c-6.6,0-12,5.4-12,12s5.4,12,12,12h560c6.6,0,12-5.4,12-12S808.6,280,802,280z"/>
	<path d="M732,385c-6.6,0-12,5.4-12,12v409.9c0,10-7.7,18.1-17.3,18.1H341.3c-9.5,0-17.3-8.1-17.3-18.1V397c0-6.6-5.4-12-12-12
		s-12,5.4-12,12v409.9c0,23.2,18.5,42.1,41.3,42.1h361.5c22.7,0,41.3-18.9,41.3-42.1V397C744,390.4,738.6,385,732,385z"/>
	<path d="M463,716V396c0-6.6-5.4-12-12-12s-12,5.4-12,12v320c0,6.6,5.4,12,12,12S463,722.6,463,716z"/>
	<path d="M606,716V396c0-6.6-5.4-12-12-12s-12,5.4-12,12v320c0,6.6,5.4,12,12,12S606,722.6,606,716z"/>
</g>
</svg>
