<?xml version="1.0" encoding="utf-8"?>
<!-- Generator: Adobe Illustrator 19.0.1, SVG Export Plug-In . SVG Version: 6.00 Build 0)  -->
<!DOCTYPE svg PUBLIC "-//W3C//DTD SVG 1.1//EN" "http://www.w3.org/Graphics/SVG/1.1/DTD/svg11.dtd">
<svg version="1.1" id="图层_1" xmlns="http://www.w3.org/2000/svg" xmlns:xlink="http://www.w3.org/1999/xlink" x="0px" y="0px"
	 viewBox="0 0 1024 1024" style="enable-background:new 0 0 1024 1024;" xml:space="preserve">
<style type="text/css">
	.st0{fill:#231815;}
</style>
<g>
	<path class="st0" d="M832,755H204V257c0-6.6-5.4-12-12-12s-12,5.4-12,12v522h652c6.6,0,12-5.4,12-12S838.6,755,832,755z"/>
	<path class="st0" d="M317,680.6c6.6,0,12-5.4,12-12v-170c0-6.6-5.4-12-12-12s-12,5.4-12,12v170C305,675.2,310.4,680.6,317,680.6z"
		/>
	<path class="st0" d="M427,680.6c6.6,0,12-5.4,12-12v-316c0-6.6-5.4-12-12-12s-12,5.4-12,12v316C415,675.2,420.4,680.6,427,680.6z"
		/>
	<path class="st0" d="M537,680.6c6.6,0,12-5.4,12-12v-282c0-6.6-5.4-12-12-12s-12,5.4-12,12v282C525,675.2,530.4,680.6,537,680.6z"
		/>
	<path class="st0" d="M647,680.6c6.6,0,12-5.4,12-12v-410c0-6.6-5.4-12-12-12s-12,5.4-12,12v410C635,675.2,640.4,680.6,647,680.6z"
		/>
	<path class="st0" d="M757,680.6c6.6,0,12-5.4,12-12v-232c0-6.6-5.4-12-12-12s-12,5.4-12,12v232C745,675.2,750.4,680.6,757,680.6z"
		/>
</g>
</svg>
