<?xml version="1.0" encoding="utf-8"?>
<!-- Generator: Adobe Illustrator 19.0.1, SVG Export Plug-In . SVG Version: 6.00 Build 0)  -->
<!DOCTYPE svg PUBLIC "-//W3C//DTD SVG 1.1//EN" "http://www.w3.org/Graphics/SVG/1.1/DTD/svg11.dtd">
<svg version="1.1" id="图层_1" xmlns="http://www.w3.org/2000/svg" xmlns:xlink="http://www.w3.org/1999/xlink" x="0px" y="0px"
	 viewBox="0 0 1024 1024" style="enable-background:new 0 0 1024 1024;" xml:space="preserve">
<path d="M727.5,592.6h-176v-130h176c13.3,0,24-10.7,24-24s-10.7-24-24-24H593.3l150.6-198.1c8-10.6,6-25.6-4.6-33.6
	c-10.6-8-25.6-6-33.6,4.6L533,414.6h-11L349.4,187.5c-8-10.6-23.1-12.6-33.6-4.6c-10.6,8-12.6,23.1-4.6,33.6l150.6,198.1H327.5
	c-13.3,0-24,10.7-24,24s10.7,24,24,24h176v130h-176c-13.3,0-24,10.7-24,24s10.7,24,24,24h176V822c0,13.3,10.7,24,24,24
	s24-10.7,24-24V640.6h176c13.3,0,24-10.7,24-24S740.8,592.6,727.5,592.6z"/>
</svg>
