<?xml version="1.0" encoding="iso-8859-1"?>
<!-- Generator: Adobe Illustrator 19.0.0, SVG Export Plug-In . SVG Version: 6.00 Build 0)  -->
<svg version="1.1" id="&#x56FE;&#x5C42;_1" xmlns="http://www.w3.org/2000/svg" xmlns:xlink="http://www.w3.org/1999/xlink" x="0px"
	 y="0px" viewBox="0 0 256 256" style="enable-background:new 0 0 256 256;" xml:space="preserve">
<path id="XMLID_690_" style="fill:#DE4A3E;" d="M152,240h-48c-48.601,0-88-39.399-88-88v-48c0-48.601,39.399-88,88-88h48
	c48.601,0,88,39.399,88,88v48C240,200.601,200.601,240,152,240z"/>
<path id="XMLID_774_" style="fill:#FFFFFF;" d="M99.69,81.395c2.601-4.012,6.07-7.407,10.115-9.975
	c5.28-3.469,11.64-5.42,18.433-5.42c6.794,0,13.08,1.951,18.463,5.42c4.012,2.568,7.477,5.963,10.079,9.975
	c0.798-0.364,1.521-0.58,2.278-0.797c2.528-0.72,5.129-1.084,7.768-1.084c7.628,0,14.528,3.072,19.587,8.061l0.217,0.287
	c4.839,4.986,7.841,11.776,7.841,19.187c0,7.661-3.072,14.601-8.058,19.584c-3.939,3.829-8.888,6.58-14.491,7.664v36.783
	c0,4.008-1.411,7.694-3.865,10.552l0,0v0.07c-2.385,2.891-5.82,4.876-9.792,5.566c-9.939,1.698-20.018,2.565-30.026,2.565
	c-10.045,0-20.094-0.867-30.066-2.565c-3.902-0.69-7.374-2.675-9.755-5.636v0.07c-2.458-2.888-3.905-6.614-3.905-10.622v-36.783
	c-5.563-1.084-10.586-3.835-14.381-7.664l-0.324-0.29C65.002,121.359,62,114.566,62,107.049c0-7.517,3.108-14.454,8.132-19.474l0,0
	v-0.04c4.986-4.986,11.926-8.021,19.477-8.021c2.638,0,5.239,0.364,7.734,1.084C98.136,80.815,98.933,81.031,99.69,81.395
	L99.69,81.395z M158.592,100.185L158.592,100.185c0,1.661-1.341,3.068-3.038,3.068c-1.701,0-3.035-1.407-3.035-3.068
	c0-8.061-4.482-15.865-11.346-20.201c-3.722-2.418-8.164-3.795-12.934-3.795c-9.865,0-18.213,5.857-22.009,14.781l-0.07,0.143
	c-1.124,2.818-1.811,5.887-1.811,9.142c0,6.323,2.531,12.357,7.01,16.839c1.194,1.157,1.194,3.108,0,4.298
	c-1.154,1.195-3.068,1.195-4.336,0.037c-5.526-5.563-8.741-13.224-8.741-21.175c0-2.671,0.324-5.203,1.007-7.731l-0.287-0.217
	c-1.337-0.798-2.852-1.517-4.442-1.988c-1.554-0.4-3.218-0.69-4.952-0.69c-4.733,0-9.069,1.954-12.247,5.026l-0.077,0.07
	l-0.037,0.037c-3.108,3.145-5.056,7.517-5.056,12.287c0,4.736,1.878,9.035,4.876,12.143l0.18,0.214
	c3.145,3.108,7.301,4.989,11.963,5.203l0.397-0.07c2.854,0,5.096,2.275,5.096,5.059v41.483c0,1.554,0.577,2.965,1.447,4.049l0,0
	c0.937,1.084,2.201,1.878,3.722,2.094c9.355,1.628,18.82,2.418,28.365,2.418c9.538,0,19.004-0.79,28.292-2.418
	c1.554-0.216,2.855-1.01,3.792-2.094l0,0c0.87-1.084,1.407-2.495,1.407-4.049v-41.012c-1.334-0.253-2.598-0.69-3.792-1.194
	l-0.143-0.073c-2.818-1.154-5.276-2.852-7.407-4.913c-1.191-1.231-1.191-3.178,0-4.336c1.191-1.231,3.145-1.231,4.336,0
	c1.517,1.514,3.399,2.782,5.383,3.652l0.217,0.07c6.323,2.598,13.874,1.12,18.864-3.869c3.145-3.142,5.056-7.477,5.056-12.357
	c0-4.696-1.841-8.965-4.839-12.067l-0.217-0.22c-3.178-3.108-7.514-5.133-12.36-5.133c-1.768,0-3.395,0.29-4.839,0.69
	c-1.517,0.47-3.002,1.047-4.266,1.878l-0.143,0.11C158.229,94.836,158.592,97.437,158.592,100.185L158.592,100.185z"/>
<circle id="XMLID_812_" style="opacity:0.16;fill:#FFFFFF;" cx="206.472" cy="152" r="4"/>
<circle id="XMLID_809_" style="opacity:0.16;fill:#FFFFFF;" cx="149.472" cy="219" r="4"/>
<circle id="XMLID_811_" style="opacity:0.16;fill:#FFFFFF;" cx="62.472" cy="148" r="4"/>
<circle id="XMLID_764_" style="opacity:0.16;fill:#FFFFFF;" cx="181.472" cy="50" r="4"/>
<circle id="XMLID_808_" style="opacity:0.58;fill:#FFFFFF;" cx="42.472" cy="146" r="2"/>
<circle id="XMLID_810_" style="opacity:0.58;fill:#FFFFFF;" cx="79.472" cy="197" r="2"/>
<circle id="XMLID_813_" style="opacity:0.25;fill:#FFFFFF;" cx="72.472" cy="70" r="2"/>
<circle id="XMLID_794_" style="opacity:0.25;fill:#FFFFFF;" cx="168.472" cy="106" r="2"/>
</svg>
