<?xml version="1.0" encoding="iso-8859-1"?>
<!-- Generator: Adobe Illustrator 19.0.0, SVG Export Plug-In . SVG Version: 6.00 Build 0)  -->
<svg version="1.1" id="&#x56FE;&#x5C42;_1" xmlns="http://www.w3.org/2000/svg" xmlns:xlink="http://www.w3.org/1999/xlink" x="0px"
	 y="0px" viewBox="0 0 256 256" style="enable-background:new 0 0 256 256;" xml:space="preserve">
<path id="XMLID_550_" style="fill:#005B46;" d="M152,240h-48c-48.601,0-88-39.399-88-88v-48c0-48.601,39.399-88,88-88h48
	c48.601,0,88,39.399,88,88v48C240,200.601,200.601,240,152,240z"/>
<path id="XMLID_46_" style="fill:#FFFFFF;" d="M150.418,109.742l0.065,0.032c4.688,4.691,12.081,6.008,17.478,1.091
	c2.633-2.568,4.433-6.168,5.109-10.15l0.095-0.643l0.065-0.128c0.32-2.443,0.418-5.014,0.546-7.52
	c0.163-2.215,0.225-4.371,0.48-6.553c-2.183,0.32-4.368,0.385-6.488,0.483c-6.684,0.353-13.495,0.546-18.442,5.877
	C144.345,97.694,145.537,104.861,150.418,109.742L150.418,109.742L150.418,109.742z M123.816,133.741L123.816,133.741
	c-1.154,1.672-2.441,3.084-3.727,4.338c-7.837,7.36-19.5,9.317-29.301,4.083c-11.212-5.785-14.779-15.714-18.249-26.507
	c-1.604-4.789-3.149-9.735-5.394-13.626c-1.254-2.085-0.519-4.881,1.637-6.168c0.709-0.353,1.477-0.546,2.248-0.546
	c4.466,0,9.477-1.091,14.492-2.12c11.114-2.378,21.46-4.273,32.127,2.443c9.317,5.91,13.495,17.027,11.055,27.501
	c-0.484,1.895-1.192,3.92-2.123,5.91c1.222,1.032,2.28,2.058,3.214,3.149c1.477-5.077,4.816-12.016,12.078-18.507
	c-6.298-8.063-6.553-19.631,0.836-27.566c6.939-7.579,15.355-8.321,24.61-8.772c3.92-0.19,7.87-0.415,11.245-1.251l0.065-0.062
	c0.706-0.225,1.48-0.225,2.313,0c2.378,0.578,3.855,3.081,3.212,5.527c-0.896,3.372-1.124,7.322-1.346,11.245
	c-0.13,2.794-0.258,5.59-0.643,8.253l-0.033,0.228l-0.095,0.736v0.033c-1.029,6.008-3.825,11.535-7.968,15.426
	c-6.749,6.168-16.55,7.132-24.322,2.954v-0.033c-1.414-0.709-2.796-1.672-4.08-2.731c-10.572,9.127-11.568,19.278-11.63,21.653
	c1.349,3.312,1.957,6.654,2.248,9.317c0.836-0.128,1.669-0.255,2.571-0.255c3.469,0,6.746,1.254,9.252,3.342h0.033
	c1.509,1.222,2.731,2.731,3.695,4.499c3.662,0.127,7.004,1.669,9.412,4.077c2.153,2.153,3.633,4.982,3.985,8.259
	c0.996,0.771,1.833,1.672,2.538,2.698c1.189,1.865,1.93,4.051,1.93,6.426c0,3.342-1.319,6.233-3.472,8.386
	c-2.123,2.12-5.077,3.437-8.291,3.437h-45.041c-3.214,0-6.171-1.317-8.291-3.437c-4.816-4.822-4.498-12.689,0.578-17.158
	c0.901-0.771,1.927-1.444,3.022-1.895l-0.036-0.644c0-6.073,4.404-11.405,10.254-12.659c0.768-1.281,1.732-2.473,2.859-3.372
	c2.022-1.637,4.59-2.601,7.423-2.601c0.64,0,1.346,0.062,2.055,0.19c-0.323-2.088-0.869-4.433-1.865-6.779
	c-0.062-0.16-0.128-0.353-0.19-0.578C127.576,138.144,126.001,135.766,123.816,133.741L123.816,133.741z M113.858,131.431
	L113.858,131.431c1.382-1.222,2.663-2.832,3.79-4.727c1.029-1.862,1.8-3.823,2.218-5.652c1.574-6.746-1-13.946-7.07-17.736
	c-8.193-5.204-16.805-3.149-25.413-1.317c-3.149,0.676-6.298,1.317-9.445,1.797c1.219,2.959,2.183,6.04,3.179,9.062
	c2.666,8.386,5.302,16.867,13.783,21.363C101.264,137.53,108.814,136.249,113.858,131.431L113.858,131.431z M117.39,167.445
	L117.39,167.445c0.065,0.353,0.258,0.641,0.385,0.901c0.451,0.801,0.646,1.83,0.516,2.826c-0.258,2.44-2.538,4.146-5.014,3.888
	l-0.35-0.033c-3.568,0-3.568,5.397-0.033,5.397h45.041c0.774,0,1.414-0.225,1.895-0.771c0.484-0.48,0.807-1.189,0.807-1.96
	c0-0.513-0.193-0.993-0.451-1.412c-0.255-0.418-0.578-0.709-1.029-0.964c-1.797-0.709-3.084-2.541-2.891-4.629v-0.353v-0.16
	c0-1.382-0.513-2.604-1.412-3.472c-0.901-0.866-2.123-1.444-3.505-1.444c-0.222,0-0.48,0-0.641,0.033
	c-0.258,0-0.48,0.062-0.676,0.128l-0.35,0.13c-2.414,0.48-4.792-1.127-5.305-3.567c-0.255-1.317-0.964-2.44-1.99-3.214v-0.03
	c-0.931-0.774-2.185-1.254-3.535-1.254c-0.549,0-1.029,0.062-1.509,0.163c-0.483,0.19-0.934,0.35-1.352,0.608
	c-1.735,0.931-3.982,0.774-5.462-0.709c-1.411-1.444-4.077-0.735-4.528,1.349l0,0c-0.448,2.156-2.313,3.632-4.498,3.632h-0.062
	h-0.261c-2.183,0-3.917,1.705-3.917,3.855C117.262,166.802,117.295,167.154,117.39,167.445L117.39,167.445z"/>
<circle id="XMLID_104_" style="opacity:0.16;fill:#FFFFFF;" cx="77.472" cy="70" r="4"/>
<circle id="XMLID_122_" style="opacity:0.18;fill:#FFFFFF;" cx="179.472" cy="147" r="4"/>
<circle id="XMLID_119_" style="opacity:0.25;fill:#FFFFFF;" cx="58.472" cy="163" r="3"/>
<circle id="XMLID_124_" style="opacity:0.25;fill:#FFFFFF;" cx="103.472" cy="76" r="2"/>
<circle id="XMLID_121_" style="opacity:0.58;fill:#FFFFFF;" cx="196.472" cy="117" r="2"/>
<circle id="XMLID_123_" style="opacity:0.54;fill:#FFFFFF;" cx="149.472" cy="45" r="2"/>
<circle id="XMLID_120_" style="opacity:0.54;fill:#FFFFFF;" cx="125.472" cy="211" r="2"/>
</svg>
