<?xml version="1.0" encoding="iso-8859-1"?>
<!-- Generator: Adobe Illustrator 19.0.0, SVG Export Plug-In . SVG Version: 6.00 Build 0)  -->
<svg version="1.1" id="&#x56FE;&#x5C42;_1" xmlns="http://www.w3.org/2000/svg" xmlns:xlink="http://www.w3.org/1999/xlink" x="0px"
	 y="0px" viewBox="0 0 256 256" style="enable-background:new 0 0 256 256;" xml:space="preserve">
<path id="XMLID_564_" style="fill:#E96C00;" d="M152,240h-48c-48.601,0-88-39.399-88-88v-48c0-48.601,39.399-88,88-88h48
	c48.601,0,88,39.399,88,88v48C240,200.601,200.601,240,152,240z"/>
<path id="XMLID_237_" style="fill:#FFFFFF;" d="M78.589,107.558h0.129h102.663c2.538,0,4.619,2.114,4.619,4.655v0.096v20.659
	c0,2.541-2.081,4.655-4.619,4.655h-0.132h-0.387v50.274c0,2.505-2.054,4.619-4.589,4.619h-0.099H83.697
	c-2.538,0-4.556-2.114-4.556-4.619v-0.129v-50.145h-0.553c-2.505,0-4.589-2.114-4.589-4.655v-0.096v-20.659
	C74,109.672,76.084,107.558,78.589,107.558L78.589,107.558z M138.885,183.308L138.885,183.308v-45.685h-17.767v45.685H138.885
	L138.885,183.308z M115.586,183.308L115.586,183.308v-45.685H88.316v45.685H115.586L115.586,183.308z M144.381,137.623
	L144.381,137.623v45.685h27.302v-45.685H144.381L144.381,137.623z M130.227,80.06L130.227,80.06c2.213,0,4.295,0.655,6.118,1.727
	c0.784-2.439,2.15-4.622,3.94-6.412c2.961-2.961,7.025-4.814,11.55-4.814c4.556,0,8.652,1.853,11.584,4.814
	c2.994,2.964,4.817,7.061,4.817,11.587c0,4.523-1.823,8.589-4.817,11.616c-2.931,2.928-7.028,4.718-11.584,4.718
	c-14.548,0-29.092,0-43.67,0c-4.52,0-8.589-1.79-11.581-4.718c-2.994-3.027-4.817-7.094-4.817-11.616
	c0-4.526,1.823-8.622,4.817-11.587c2.991-2.961,7.061-4.814,11.581-4.814c4.493,0,8.592,1.853,11.52,4.814
	c1.856,1.79,3.256,4.069,4.102,6.673C125.611,80.778,127.821,80.06,130.227,80.06L130.227,80.06z M134.521,87.319L134.521,87.319
	c-1.105-1.072-2.634-1.757-4.295-1.757c-1.688,0-3.253,0.685-4.358,1.757c-1.105,1.138-1.79,2.667-1.79,4.391
	c0,1.694,0.715,3.222,1.853,4.328c1.042,1.078,2.607,1.79,4.295,1.79c1.631,0,3.093-0.649,4.232-1.658l0.063-0.132
	c1.108-1.105,1.823-2.667,1.823-4.328C136.344,90.022,135.63,88.457,134.521,87.319L134.521,87.319z M140.966,87.256L140.966,87.256
	c0.586,1.397,0.88,2.862,0.88,4.454c0,2.216-0.655,4.328-1.727,6.117h11.716c2.991,0,5.724-1.237,7.676-3.156
	c1.985-1.985,3.19-4.685,3.19-7.709c0-2.994-1.204-5.694-3.19-7.679c-1.952-1.919-4.685-3.189-7.676-3.189
	c-2.994,0-5.664,1.27-7.646,3.189c-1.985,1.985-3.156,4.685-3.156,7.679L140.966,87.256L140.966,87.256z M120.337,97.827
	L120.337,97.827c-1.105-1.724-1.757-3.901-1.757-6.117c0-1.333,0.258-2.505,0.619-3.709c-0.099-0.355-0.162-0.682-0.162-1.039
	c0-2.994-1.237-5.694-3.189-7.679c-2.021-1.919-4.685-3.189-7.682-3.189c-3.024,0-5.727,1.27-7.709,3.189
	c-1.919,1.985-3.153,4.685-3.153,7.679c0,3.024,1.234,5.724,3.153,7.709c1.982,1.919,4.685,3.156,7.709,3.156H120.337
	L120.337,97.827z M176.825,116.766L176.825,116.766H83.244v11.65c33.579,0,59.936,0,93.581,0V116.766L176.825,116.766z"/>
<circle id="XMLID_125_" style="opacity:0.16;fill:#FFFFFF;" cx="62.472" cy="83" r="4"/>
<circle id="XMLID_140_" style="opacity:0.18;fill:#FFFFFF;" cx="202.472" cy="133" r="4"/>
<circle id="XMLID_139_" style="opacity:0.18;fill:#FFFFFF;" cx="108.472" cy="222" r="4"/>
<circle id="XMLID_158_" style="opacity:0.25;fill:#FFFFFF;" cx="48.472" cy="154" r="3"/>
<circle id="XMLID_208_" style="opacity:0.66;fill:#FFFFFF;" cx="71.472" cy="60" r="2"/>
<circle id="XMLID_160_" style="opacity:0.25;fill:#FFFFFF;" cx="153.472" cy="45" r="2"/>
<circle id="XMLID_159_" style="opacity:0.58;fill:#FFFFFF;" cx="156.472" cy="160" r="2"/>
<circle id="XMLID_232_" style="opacity:0.54;fill:#FFFFFF;" cx="176.472" cy="203" r="2"/>
</svg>
