<?xml version="1.0" encoding="iso-8859-1"?>
<!-- Generator: Adobe Illustrator 19.0.0, SVG Export Plug-In . SVG Version: 6.00 Build 0)  -->
<svg version="1.1" id="&#x56FE;&#x5C42;_1" xmlns="http://www.w3.org/2000/svg" xmlns:xlink="http://www.w3.org/1999/xlink" x="0px"
	 y="0px" viewBox="0 0 256 256" style="enable-background:new 0 0 256 256;" xml:space="preserve">
<path id="XMLID_644_" style="fill:#3B3485;" d="M152,240h-48c-48.601,0-88-39.399-88-88v-48c0-48.601,39.399-88,88-88h48
	c48.601,0,88,39.399,88,88v48C240,200.601,200.601,240,152,240z"/>
<path id="XMLID_470_" style="fill:#FFFFFF;" d="M90.035,134.522c-5.518,0-10.677,3.347-12.736,8.431
	c-0.367,0.812-0.588,1.692-0.809,2.579c-0.146,0.883-0.221,1.764-0.221,2.722c0,2.725,0.809,5.376,2.283,7.584
	c1.472,2.283,3.534,4.05,6.11,5.083c1.696,0.734,3.534,1.067,5.301,1.067c1.842,0,3.68-0.333,5.376-1.067
	c2.504-1.033,4.601-2.875,6.113-5.083c1.471-2.209,2.28-4.859,2.28-7.584C103.732,140.707,97.551,134.522,90.035,134.522
	L90.035,134.522z M129.357,134.522L129.357,134.522c-5.484,0-10.531,3.347-12.702,8.431c-0.33,0.812-0.554,1.692-0.734,2.579
	c-0.183,0.883-0.262,1.764-0.262,2.722c0,2.725,0.812,5.376,2.287,7.584c1.468,2.283,3.609,4.05,6.109,5.083
	c1.692,0.734,3.534,1.067,5.301,1.067c1.842,0,3.683-0.333,5.376-1.067l0.221-0.075c2.43-1.108,4.417-2.875,5.855-5.009
	c1.471-2.209,2.318-4.859,2.318-7.584C143.126,140.744,136.867,134.522,129.357,134.522L129.357,134.522z M129.357,128.3
	L129.357,128.3c9.718,0,18.153,7.214,19.732,16.786l0.075-0.697l0.075-0.037c0.183-1.254,0.588-2.504,1.067-3.68
	c3.13-7.513,10.456-12.372,18.445-12.372c5.559,0,10.531,2.209,14.136,5.814c1.475,1.475,2.65,3.13,3.575,4.937V84.527H72.29v54.487
	C75.681,132.5,82.603,128.3,90.035,128.3c9.725,0,18.115,7.214,19.624,16.786l0.153-0.734c0.255-1.254,0.625-2.504,1.138-3.68
	C114.005,133.159,121.405,128.3,129.357,128.3L129.357,128.3z M149.089,151.421L149.089,151.421
	c-0.442,2.834-1.546,5.522-3.092,7.88c-0.809,1.214-1.767,2.355-2.797,3.385l0.516,0.112l0,0c1.509,0.479,2.983,1.138,4.343,2.063
	c0.333,0.255,0.7,0.479,1.03,0.775c1.033-0.812,2.137-1.475,3.242-1.991c0.883-0.442,1.767-0.737,2.65-0.958
	c-1.067-1.03-2.025-2.171-2.797-3.385C150.639,156.942,149.535,154.255,149.089,151.421L149.089,151.421z M115.588,162.685
	L115.588,162.685c-1.033-1.03-1.988-2.171-2.797-3.385c-1.55-2.358-2.654-5.046-3.096-7.88c-0.442,2.834-1.546,5.522-3.089,7.88
	c-0.812,1.214-1.77,2.355-2.8,3.385l0.479,0.112l0,0c1.583,0.479,3.055,1.138,4.342,2.063c0.404,0.255,0.775,0.479,1.067,0.775
	c0.996-0.812,2.137-1.475,3.242-1.991C113.821,163.202,114.705,162.906,115.588,162.685L115.588,162.685z M178.323,168.319
	L178.323,168.319h-9.572h-9.498c-1.475,0-2.942,0.33-4.309,0.958c-1.288,0.588-2.542,1.508-3.5,2.65
	c-1.104,1.288-3.051,1.471-4.342,0.404c-0.218-0.221-0.367-0.37-0.517-0.588c-0.217-0.296-0.55-0.588-0.842-0.85l0,0
	c-0.408-0.33-0.812-0.625-1.142-0.88c-0.812-0.554-1.692-0.958-2.65-1.216h-0.075c-0.883-0.33-1.95-0.479-2.983-0.479h-9.535h-9.498
	c-1.55,0-2.98,0.33-4.271,0.958c-1.363,0.588-2.576,1.508-3.534,2.65c-1.104,1.288-3.092,1.471-4.343,0.404
	c-0.224-0.221-0.37-0.37-0.554-0.588c-0.258-0.296-0.479-0.588-0.846-0.85l0,0c-0.37-0.33-0.737-0.625-1.142-0.88
	c-0.775-0.554-1.692-0.958-2.65-1.216c-0.996-0.33-1.954-0.479-2.984-0.479h-9.501h-9.603c-1.733,0-3.391,0.479-4.829,1.216
	c-1.468,0.734-2.722,1.913-3.677,3.313c-0.517,0.812-0.996,1.767-1.291,2.722l-0.037,0.224c-0.146,0.554-0.292,1.141-0.292,1.767
	h19.729h16.494h6.334h16.494h16.532h6.368h16.494h19.77c-0.071-0.516-0.146-1.033-0.258-1.475h-0.037
	c-0.183-0.842-0.479-1.654-0.88-2.354c-0.333-0.738-0.883-1.4-1.437-2.063l-0.038-0.034c-0.55-0.591-1.176-1.141-1.879-1.583
	l-0.109-0.112c-0.809-0.48-1.655-0.921-2.542-1.142h-0.037C180.348,168.469,179.356,168.319,178.323,168.319L178.323,168.319z
	 M182.594,162.685L182.594,162.685l0.517,0.112l0,0c1.475,0.404,2.943,1.104,4.197,1.988l0.109,0.075
	c1.217,0.734,2.246,1.655,3.133,2.65c0.88,0.958,1.617,2.097,2.28,3.275c0.625,1.214,1.179,2.505,1.475,3.755
	c0.292,1.329,0.513,2.65,0.513,4.05v1.033v0.958v0.071c0,1.73-1.4,3.167-3.13,3.167h-22.937h-16.494h-6.368h-16.532h-16.494h-6.334
	H90.035H67.176h-0.075c-1.733,0-3.13-1.437-3.13-3.167v-1.03v-1.033c0-1.583,0.221-3.13,0.663-4.567l0.075-0.255
	c0.442-1.509,1.176-3.021,2.063-4.38c1.509-2.212,3.609-4.05,5.926-5.338c1.142-0.557,2.317-1.067,3.5-1.366
	c-1.07-1.03-2.029-2.171-2.837-3.385c-0.996-1.583-1.876-3.353-2.467-5.154c-0.221,0.037-0.513,0.037-0.737,0.037h-3.055
	c-2.837,0-5.192-2.321-5.192-5.192v-0.112V79.334c0-2.871,2.355-5.155,5.192-5.155h0.146h124.44c2.834,0,5.189,2.284,5.189,5.155
	v0.146v69.511c0,2.871-2.355,5.192-5.189,5.192H191.5h-3.677c-0.554,1.801-1.363,3.534-2.433,5.117
	C184.585,160.514,183.699,161.656,182.594,162.685L182.594,162.685z M168.751,134.522L168.751,134.522
	c-6.405,0-12.185,4.638-13.399,11.01l-0.075,0.146c-0.15,0.812-0.224,1.692-0.224,2.576c0,2.725,0.812,5.376,2.287,7.584
	c1.471,2.283,3.568,4.05,6.11,5.083c1.692,0.734,3.5,1.067,5.301,1.067c1.842,0,3.683-0.333,5.376-1.067l0.183-0.075
	c2.467-1.108,4.458-2.875,5.926-5.009c1.475-2.209,2.287-4.859,2.287-7.584C182.523,140.744,176.335,134.522,168.751,134.522
	L168.751,134.522z"/>
<circle id="XMLID_415_" style="opacity:0.16;fill:#FFFFFF;" cx="42.472" cy="128" r="4"/>
<circle id="XMLID_468_" style="opacity:0.18;fill:#FFFFFF;" cx="160.472" cy="115" r="4"/>
<circle id="XMLID_399_" style="opacity:0.18;fill:#FFFFFF;" cx="151.472" cy="46" r="4"/>
<circle id="XMLID_416_" style="opacity:0.25;fill:#FFFFFF;" cx="186.472" cy="212" r="3"/>
<circle id="XMLID_414_" style="opacity:0.58;fill:#FFFFFF;" cx="90.472" cy="105" r="2"/>
<circle id="XMLID_445_" style="opacity:0.54;fill:#FFFFFF;" cx="77.472" cy="209" r="2"/>
</svg>
