<?xml version="1.0" encoding="iso-8859-1"?>
<!-- Generator: Adobe Illustrator 19.0.0, SVG Export Plug-In . SVG Version: 6.00 Build 0)  -->
<svg version="1.1" id="&#x56FE;&#x5C42;_1" xmlns="http://www.w3.org/2000/svg" xmlns:xlink="http://www.w3.org/1999/xlink" x="0px"
	 y="0px" viewBox="0 0 256 256" style="enable-background:new 0 0 256 256;" xml:space="preserve">
<path id="XMLID_687_" style="fill:#5E8538;" d="M152,240h-48c-48.601,0-88-39.399-88-88v-48c0-48.601,39.399-88,88-88h48
	c48.601,0,88,39.399,88,88v48C240,200.601,200.601,240,152,240z"/>
<path id="XMLID_189_" style="fill:#FFFFFF;" d="M120.243,57.226h0.034h17.891c1.54,0,2.809,1.272,2.809,2.874v0.034v12.041
	c0,1.571-1.269,2.843-2.809,2.843h-0.102h-6.05v0.633c1.738,0.503,3.343,1.408,4.578,2.574l0.17,0.204
	c1.942,1.938,3.142,4.615,3.142,7.59c0,2.908-1.102,5.553-2.942,7.39l-0.201,0.269v0.068l30.432,24.549h18.597
	c2.605,0,4.679,2.17,4.679,4.781v0.099v59.129c0,2.608-2.074,4.713-4.679,4.713h-0.133H72.622c-2.611,0-4.75-2.105-4.75-4.713
	v-0.136v-59.092c0-2.611,2.139-4.781,4.75-4.781h0.133h18.458l30.435-24.549l-0.068-0.068l0,0l0,0
	c-1.942-1.972-3.142-4.683-3.142-7.658c0-1.537,1.238-2.778,2.775-2.778c1.571,0,2.843,1.241,2.843,2.778
	c0,1.405,0.602,2.71,1.54,3.645c0.133,0.167,0.296,0.299,0.5,0.435l1.303-1.071c1.071-0.836,2.577-0.803,3.615,0.068l1.272,1.003
	c0.164-0.136,0.33-0.269,0.534-0.435l0.133-0.136c0.803-0.932,1.34-2.139,1.34-3.51c0-1.438-0.537-2.642-1.472-3.577l-0.136-0.204
	c-0.938-0.799-2.139-1.269-3.513-1.269c-1.571,0-2.775-1.306-2.775-2.877v-0.065v-3.01h-6.152c-1.608,0-2.877-1.272-2.877-2.843
	v-0.034V60.1C117.366,58.498,118.635,57.226,120.243,57.226L120.243,57.226z M158.166,118.294L158.166,118.294l-26.888-21.706
	c-0.67,0.099-1.37,0.231-2.108,0.231c-0.701,0-1.435-0.133-2.105-0.231l-26.888,21.706H158.166L158.166,118.294z M181.042,127.754
	L181.042,127.754H77.301v49.832h103.741V127.754L181.042,127.754z M88.672,136.218L88.672,136.218c0-1.537,1.204-2.843,2.775-2.843
	c1.574,0,2.843,1.306,2.843,2.843v32.975c0,1.537-1.269,2.806-2.843,2.806c-1.571,0-2.775-1.269-2.775-2.806V136.218L88.672,136.218
	z M103.689,136.218L103.689,136.218c0-1.537,1.303-2.843,2.84-2.843c1.608,0,2.877,1.306,2.877,2.843v32.975
	c0,1.537-1.269,2.806-2.877,2.806c-1.537,0-2.84-1.269-2.84-2.806V136.218L103.689,136.218z M118.805,136.218L118.805,136.218
	c0-1.537,1.303-2.843,2.843-2.843c1.537,0,2.806,1.306,2.806,2.843v32.975c0,1.537-1.269,2.806-2.806,2.806
	c-1.54,0-2.843-1.269-2.843-2.806V136.218L118.805,136.218z M133.886,136.218L133.886,136.218c0-1.537,1.269-2.843,2.877-2.843
	c1.537,0,2.775,1.306,2.775,2.843v32.975c0,1.537-1.238,2.806-2.775,2.806c-1.608,0-2.877-1.269-2.877-2.806V136.218
	L133.886,136.218z M149.002,136.218L149.002,136.218c0-1.537,1.241-2.843,2.778-2.843c1.571,0,2.911,1.306,2.911,2.843v32.975
	c0,1.537-1.34,2.806-2.911,2.806c-1.537,0-2.778-1.269-2.778-2.806V136.218L149.002,136.218z M164.053,136.218L164.053,136.218
	c0-1.537,1.272-2.843,2.843-2.843c1.571,0,2.843,1.306,2.843,2.843v32.975c0,1.537-1.272,2.806-2.843,2.806
	c-1.571,0-2.843-1.269-2.843-2.806V136.218L164.053,136.218z M135.359,62.878L135.359,62.878h-12.31v6.454h6.056h0.065h0.068h6.121
	V62.878L135.359,62.878z"/>
<circle id="XMLID_1009_" style="opacity:0.16;fill:#FFFFFF;" cx="164.472" cy="32" r="4"/>
<circle id="XMLID_1010_" style="opacity:0.16;fill:#FFFFFF;" cx="76.472" cy="204" r="4"/>
<circle id="XMLID_994_" style="opacity:0.16;fill:#FFFFFF;" cx="206.472" cy="159" r="4"/>
<circle id="XMLID_1012_" style="opacity:0.16;fill:#FFFFFF;" cx="38.472" cy="107" r="4"/>
<circle id="XMLID_1008_" style="opacity:0.58;fill:#FFFFFF;" cx="210.472" cy="100" r="2"/>
<circle id="XMLID_1026_" style="opacity:0.58;fill:#FFFFFF;" cx="79.472" cy="73" r="2"/>
<circle id="XMLID_1011_" style="opacity:0.25;fill:#FFFFFF;" cx="166.472" cy="208" r="2"/>
</svg>
