<?xml version="1.0" encoding="iso-8859-1"?>
<!-- Generator: Adobe Illustrator 19.0.0, SVG Export Plug-In . SVG Version: 6.00 Build 0)  -->
<svg version="1.1" id="&#x56FE;&#x5C42;_1" xmlns="http://www.w3.org/2000/svg" xmlns:xlink="http://www.w3.org/1999/xlink" x="0px"
	 y="0px" viewBox="0 0 256 256" style="enable-background:new 0 0 256 256;" xml:space="preserve">
<path id="XMLID_645_" style="fill:#1F225C;" d="M152,240h-48c-48.601,0-88-39.399-88-88v-48c0-48.601,39.399-88,88-88h48
	c48.601,0,88,39.399,88,88v48C240,200.601,200.601,240,152,240z"/>
<path id="XMLID_344_" style="fill:#FFFFFF;" d="M121.411,154.779h0.068h13.548c1.583,0,2.899,1.285,2.899,2.899v0.068v13.483
	c0,1.618-1.316,2.899-2.899,2.899h-0.065h-13.551c-1.549,0-2.831-1.282-2.831-2.899v-0.034v-13.517
	C118.58,156.064,119.861,154.779,121.411,154.779L121.411,154.779z M75.941,108.031L75.941,108.031h104.524V93.774
	c0-4.246-1.723-8.088-4.452-10.888c-2.831-2.731-6.673-4.48-10.922-4.48h-1.279v9.84c0,2.595-2.125,4.788-4.719,4.788
	c-2.629,0-4.788-2.193-4.788-4.788v-9.84h-52.176v9.84c0,2.595-2.156,4.788-4.716,4.788c-2.632,0-4.788-2.193-4.788-4.788v-9.84
	h-1.316c-4.209,0-8.054,1.748-10.817,4.48c-2.8,2.8-4.551,6.642-4.551,10.888V108.031L75.941,108.031z M180.465,117.535
	L180.465,117.535H75.941v50.052c0,4.215,1.751,8.026,4.551,10.82c2.762,2.8,6.608,4.551,10.817,4.551h73.782
	c4.249,0,8.091-1.751,10.922-4.551c2.728-2.794,4.452-6.604,4.452-10.82V117.535L180.465,117.535z M91.309,68.899L91.309,68.899
	h1.316v-0.641c0-2.595,2.156-4.719,4.788-4.719c2.56,0,4.716,2.125,4.716,4.719v0.641h52.176v-0.641
	c0-2.595,2.159-4.719,4.788-4.719c2.594,0,4.719,2.125,4.719,4.719v0.641h1.279c6.878,0,13.147,2.797,17.595,7.28
	C187.203,80.627,190,86.895,190,93.774c0,24.573,0,49.143,0,73.813c0,6.81-2.797,13.047-7.314,17.595
	c-4.449,4.449-10.717,7.28-17.595,7.28H91.309c-6.841,0-13.075-2.831-17.558-7.28c-4.517-4.548-7.28-10.786-7.28-17.595
	c0-24.67,0-49.24,0-73.813c0-6.878,2.762-13.147,7.28-17.595C78.234,71.696,84.468,68.899,91.309,68.899L91.309,68.899z
	 M104.288,88.246L104.288,88.246c0-1.549,1.282-2.865,2.899-2.865c1.549,0,2.831,1.316,2.831,2.865c0,3.472-1.415,6.642-3.708,8.966
	c-2.293,2.293-5.425,3.64-8.897,3.64c-3.506,0-6.676-1.347-8.969-3.64c-2.29-2.324-3.705-5.494-3.705-8.966
	c0-1.549,1.279-2.865,2.899-2.865c1.549,0,2.8,1.316,2.8,2.865c0,1.923,0.772,3.64,2.053,4.921c1.247,1.21,2.968,1.988,4.921,1.988
	c1.888,0,3.606-0.778,4.853-1.988C103.513,91.885,104.288,90.168,104.288,88.246L104.288,88.246z M166.037,88.246L166.037,88.246
	c0-1.549,1.247-2.865,2.831-2.865c1.549,0,2.831,1.316,2.831,2.865c0,3.472-1.415,6.642-3.708,8.966
	c-2.293,2.293-5.46,3.64-8.897,3.64c-3.503,0-6.673-1.347-8.965-3.64c-2.293-2.324-3.743-5.494-3.743-8.966
	c0-1.549,1.316-2.865,2.868-2.865c1.615,0,2.865,1.316,2.865,2.865c0,1.923,0.771,3.64,2.053,4.921
	c1.213,1.21,2.968,1.988,4.921,1.988c1.888,0,3.64-0.778,4.853-1.988C165.225,91.885,166.037,90.168,166.037,88.246L166.037,88.246z
	 M91.011,124.31L91.011,124.31h0.065h13.551c1.549,0,2.828,1.313,2.828,2.934v0.065v13.585c0,1.549-1.279,2.797-2.828,2.797h-0.072
	H91.011c-1.552,0-2.868-1.247-2.868-2.797v-0.072v-13.579C88.142,125.623,89.458,124.31,91.011,124.31L91.011,124.31z
	 M101.762,130.038L101.762,130.038h-7.92v7.992h7.92V130.038L101.762,130.038z M121.411,124.31L121.411,124.31h0.068h13.548
	c1.583,0,2.899,1.313,2.899,2.934v0.065v13.585c0,1.549-1.316,2.797-2.899,2.797h-0.065h-13.551c-1.549,0-2.831-1.247-2.831-2.797
	v-0.072v-13.579C118.58,125.623,119.861,124.31,121.411,124.31L121.411,124.31z M132.196,130.038L132.196,130.038h-7.955v7.992
	h7.955V130.038L132.196,130.038z M151.814,124.31L151.814,124.31h0.065h13.62c1.549,0,2.797,1.313,2.797,2.934v0.065v13.585
	c0,1.549-1.248,2.797-2.797,2.797h-0.068h-13.616c-1.583,0-2.834-1.247-2.834-2.797v-0.072v-13.579
	C148.979,125.623,150.23,124.31,151.814,124.31L151.814,124.31z M162.599,130.038L162.599,130.038h-7.955v7.992h7.955V130.038
	L162.599,130.038z M91.011,154.779L91.011,154.779h0.065h13.551c1.549,0,2.828,1.285,2.828,2.899v0.068v13.483
	c0,1.618-1.279,2.899-2.828,2.899h-0.072H91.011c-1.552,0-2.868-1.282-2.868-2.899v-0.034v-13.517
	C88.142,156.064,89.458,154.779,91.011,154.779L91.011,154.779z M101.762,160.478L101.762,160.478h-7.92v7.955h7.92V160.478
	L101.762,160.478z M132.196,160.478L132.196,160.478h-7.955v7.955h7.955V160.478L132.196,160.478z"/>
<circle id="XMLID_350_" style="opacity:0.16;fill:#FFFFFF;" cx="52.472" cy="138" r="4"/>
<circle id="XMLID_370_" style="opacity:0.16;fill:#FFFFFF;" cx="202.472" cy="160" r="4"/>
<circle id="XMLID_349_" style="opacity:0.18;fill:#FFFFFF;" cx="123.472" cy="42" r="4"/>
<circle id="XMLID_347_" style="opacity:0.66;fill:#FFFFFF;" cx="196.472" cy="203" r="2"/>
<circle id="XMLID_348_" style="opacity:0.58;fill:#FFFFFF;" cx="44.472" cy="66" r="2"/>
<circle id="XMLID_371_" style="opacity:0.58;fill:#FFFFFF;" cx="141.472" cy="214" r="2"/>
<circle id="XMLID_372_" style="opacity:0.25;fill:#FFFFFF;" cx="42.472" cy="168" r="2"/>
<circle id="XMLID_332_" style="opacity:0.25;fill:#FFFFFF;" cx="196.472" cy="64" r="2"/>
</svg>
