<?xml version="1.0" encoding="iso-8859-1"?>
<!-- Generator: Adobe Illustrator 19.0.0, SVG Export Plug-In . SVG Version: 6.00 Build 0)  -->
<svg version="1.1" id="&#x56FE;&#x5C42;_1" xmlns="http://www.w3.org/2000/svg" xmlns:xlink="http://www.w3.org/1999/xlink" x="0px"
	 y="0px" viewBox="0 0 256 256" style="enable-background:new 0 0 256 256;" xml:space="preserve">
<path id="XMLID_743_" style="fill:#B40034;" d="M152,240h-48c-48.601,0-88-39.399-88-88v-48c0-48.601,39.399-88,88-88h48
	c48.601,0,88,39.399,88,88v48C240,200.601,200.601,240,152,240z"/>
<path id="XMLID_412_" style="fill:#FFFFFF;" d="M72.218,142.146c8.51-4.18,15.12,1.936,21.656,8.051
	c3.797,3.499,7.521,6.918,9.878,5.929c12.384-5.242,18.233,0.834,25.607,8.507c0.908,0.988,1.971,2.09,3.037,3.156
	c0.838,0.799,1.858,1.062,2.966,0.95c2.122-0.189,4.52-1.371,6.911-3.005c1.178-0.831,3.229-3.454,5.547-6.266
	c2.433-2.963,4.976-6.192,7.9-8.815c7.297-6.76,14.972-4.253,22.115-1.971l0,0c2.504,0.796,4.895,1.592,6.568,1.592l0,0
	c2.623,0,4.523-3.72,4.523-19.678c0-16.263-6.61-31.004-17.287-41.639c-10.712-10.674-25.453-17.248-41.674-17.248
	c-16.301,0-31.042,6.575-41.639,17.248c-10.638,10.635-17.248,25.376-17.248,41.639c0,2.661,0.151,5.13,0.421,7.444l0,0
	C71.65,139.411,71.916,140.775,72.218,142.146L72.218,142.146z M158.192,88.539L158.192,88.539c1.785,0,3.229,1.48,3.229,3.229
	c0,1.746-1.445,3.191-3.229,3.191c-1.746,0-3.156-1.445-3.156-3.191C155.036,90.019,156.445,88.539,158.192,88.539L158.192,88.539z
	 M179.654,118.551L179.654,118.551c1.823,0,3.194,1.406,3.194,3.233c0,1.746-1.371,3.149-3.194,3.149
	c-1.746,0-3.229-1.403-3.229-3.149C176.425,119.957,177.908,118.551,179.654,118.551L179.654,118.551z M166.817,130.329
	L166.817,130.329c1.746,0,3.187,1.483,3.187,3.229c0,1.746-1.441,3.191-3.187,3.191c-1.827,0-3.233-1.445-3.233-3.191
	C163.584,131.812,164.991,130.329,166.817,130.329L166.817,130.329z M162.484,113.197L162.484,113.197
	c1.823,0,3.268,1.445,3.268,3.191c0,1.823-1.444,3.191-3.268,3.191c-1.788,0-3.191-1.368-3.191-3.191
	C159.293,114.641,160.696,113.197,162.484,113.197L162.484,113.197z M171.067,101.38L171.067,101.38
	c1.785,0,3.268,1.445,3.268,3.229c0,1.75-1.484,3.191-3.268,3.191c-1.785,0-3.191-1.441-3.191-3.191
	C167.876,102.825,169.282,101.38,171.067,101.38L171.067,101.38z M122.216,81.663L122.216,81.663c1.82,0,3.229,1.403,3.229,3.191
	c0,1.785-1.41,3.268-3.229,3.268c-1.75,0-3.229-1.483-3.229-3.268C118.986,83.066,120.466,81.663,122.216,81.663L122.216,81.663z
	 M148.503,97.351L148.503,97.351c1.75,0,3.152,1.41,3.152,3.156c0,1.823-1.403,3.268-3.152,3.268c-1.823,0-3.268-1.445-3.268-3.268
	C145.235,98.761,146.68,97.351,148.503,97.351L148.503,97.351z M141.056,79.991L141.056,79.991c1.785,0,3.233,1.368,3.233,3.194
	c0,1.785-1.448,3.191-3.233,3.191c-1.746,0-3.191-1.406-3.191-3.191C137.865,81.358,139.31,79.991,141.056,79.991L141.056,79.991z
	 M130.19,90.857L130.19,90.857c1.711,0,3.156,1.406,3.156,3.191c0,1.75-1.445,3.264-3.156,3.264c-1.82,0-3.265-1.515-3.265-3.264
	C126.925,92.263,128.37,90.857,130.19,90.857L130.19,90.857z M106.335,87.473L106.335,87.473c1.785,0,3.191,1.483,3.191,3.229
	s-1.406,3.194-3.191,3.194c-1.785,0-3.194-1.448-3.194-3.194S104.55,87.473,106.335,87.473L106.335,87.473z M107.205,100.735
	L107.205,100.735c1.75,0,3.229,1.441,3.229,3.226c0,1.753-1.48,3.233-3.229,3.233c-1.785,0-3.226-1.48-3.226-3.233
	C103.979,102.176,105.42,100.735,107.205,100.735L107.205,100.735z M93.947,118.551L93.947,118.551c1.746,0,3.229,1.406,3.229,3.233
	c0,1.746-1.483,3.149-3.229,3.149c-1.746,0-3.229-1.403-3.229-3.149C90.718,119.957,92.201,118.551,93.947,118.551L93.947,118.551z
	 M81.106,122.846L81.106,122.846c1.75,0,3.156,1.368,3.156,3.187c0,1.788-1.406,3.195-3.156,3.195c-1.746,0-3.229-1.407-3.229-3.195
	C77.877,124.214,79.36,122.846,81.106,122.846L81.106,122.846z M90.984,102.86L90.984,102.86c1.823,0,3.195,1.445,3.195,3.194
	c0,1.746-1.371,3.229-3.195,3.229c-1.746,0-3.229-1.484-3.229-3.229C87.755,104.304,89.238,102.86,90.984,102.86L90.984,102.86z
	 M189.458,160.151L189.458,160.151c-5.319,10.639-13.528,19.756-23.405,26.141C155.607,193.052,143.261,197,129.965,197
	c-14.702,0-28.342-4.825-39.325-12.914c-10.291-7.598-18.384-18.16-22.943-30.317c-1.027-0.456-1.939-0.988-2.774-1.749
	c-0.154-0.151-0.305-0.379-0.533-0.53c-0.68-0.838-1.294-1.788-1.669-2.889c-0.119-0.228-0.193-0.379-0.231-0.684
	c-0.684-2.774-1.213-5.621-1.595-8.584c-0.413-2.963-0.533-5.926-0.533-8.738c0-19.184,7.749-36.625,20.327-49.237
	C93.302,68.823,110.704,61,129.965,61c19.222,0,36.622,7.823,49.195,20.358c12.616,12.613,20.477,30.053,20.477,49.237
	C199.637,150.196,195.5,157.871,189.458,160.151L189.458,160.151z M78.603,152.135L78.603,152.135
	c3.913,9.348,10.291,17.399,18.349,23.363c9.232,6.76,20.625,10.793,33.013,10.793c11.168,0,21.579-3.268,30.205-8.892
	c6.984-4.485,12.875-10.558,17.244-17.627c-0.989-0.266-1.939-0.607-2.886-0.912c-4.295-1.371-8.931-2.886-11.627-0.382
	c-2.125,1.978-4.558,4.941-6.763,7.676c-2.77,3.454-5.32,6.61-7.823,8.282c-3.724,2.658-7.865,4.562-12.083,4.937
	c-4.064,0.382-8.054-0.719-11.28-3.948c-1.14-1.14-2.321-2.318-3.384-3.419c-4.485-4.713-8.054-8.433-13.675-6.042
	c-8.777,3.723-15.007-2.09-21.312-8.019C83.841,155.442,81.033,152.857,78.603,152.135L78.603,152.135z M129.965,106.548
	L129.965,106.548c6.687,0,12.651,2.696,17.021,7.027l0.038,0.077c4.369,4.33,7.023,10.333,7.023,16.943
	c0,6.687-2.654,12.651-7.023,17.02l-0.038,0.039c-4.369,4.365-10.334,7.104-17.021,7.104c-6.648,0-12.651-2.739-17.02-7.104v-0.039
	c-4.33-4.369-7.069-10.333-7.069-17.02c0-6.61,2.739-12.613,7.069-16.943v-0.077C117.314,109.245,123.317,106.548,129.965,106.548
	L129.965,106.548z M139.46,121.139L139.46,121.139c-2.468-2.399-5.814-3.84-9.495-3.84c-3.685,0-6.992,1.406-9.383,3.759
	l-0.039,0.081l-0.077,0.032c-2.395,2.433-3.878,5.74-3.878,9.425c0,3.647,1.445,6.988,3.801,9.422l0.077,0.077h0.077
	c2.353,2.353,5.737,3.91,9.422,3.91c3.643,0,6.988-1.48,9.422-3.836l0.074-0.074l0,0c2.395-2.429,3.875-5.778,3.875-9.498
	c0-3.647-1.48-6.915-3.797-9.345l-0.077-0.081V121.139L139.46,121.139z"/>
<circle id="XMLID_1093_" style="opacity:0.16;fill:#FFFFFF;" cx="103.472" cy="39" r="4"/>
<circle id="XMLID_1094_" style="opacity:0.16;fill:#FFFFFF;" cx="90.472" cy="218" r="4"/>
<circle id="XMLID_1078_" style="opacity:0.58;fill:#FFFFFF;" cx="69.472" cy="70" r="2"/>
<circle id="XMLID_1095_" style="opacity:0.58;fill:#FFFFFF;" cx="206.472" cy="58" r="2"/>
<circle id="XMLID_1092_" style="opacity:0.58;fill:#FFFFFF;" cx="165.472" cy="207" r="2"/>
<circle id="XMLID_1109_" style="opacity:0.58;fill:#FFFFFF;" cx="40.472" cy="169" r="2"/>
</svg>
