<?xml version="1.0" encoding="iso-8859-1"?>
<!-- Generator: Adobe Illustrator 19.0.0, SVG Export Plug-In . SVG Version: 6.00 Build 0)  -->
<svg version="1.1" id="&#x56FE;&#x5C42;_1" xmlns="http://www.w3.org/2000/svg" xmlns:xlink="http://www.w3.org/1999/xlink" x="0px"
	 y="0px" viewBox="0 0 256 256" style="enable-background:new 0 0 256 256;" xml:space="preserve">
<path id="XMLID_685_" style="fill:#DDA300;" d="M152,240h-48c-48.601,0-88-39.399-88-88v-48c0-48.601,39.399-88,88-88h48
	c48.601,0,88,39.399,88,88v48C240,200.601,200.601,240,152,240z"/>
<path id="XMLID_386_" style="fill:#FFFFFF;" d="M186.781,175.904l-15.496-26.825c6.838-8.919,10.887-19.988,10.887-32.027
	c0-14.564-5.908-27.714-15.42-37.226c-9.471-9.546-22.7-15.451-37.185-15.451c-14.529,0-27.72,5.905-37.232,15.451
	c-9.543,9.512-15.452,22.662-15.452,37.226c0,12.039,4.046,23.108,10.922,32.027l-15.53,26.825c-0.522,0.779-0.669,1.708-0.446,2.6
	c0.446,1.711,2.153,2.675,3.83,2.267l20.986-5.61l5.576,20.879c0.185,0.778,0.669,1.488,1.488,1.934
	c1.444,0.816,3.378,0.367,4.231-1.156l15.828-27.494c1.893,0.264,3.827,0.336,5.799,0.336c1.928,0,3.861-0.072,5.682-0.336
	l15.938,27.494c0.816,1.522,2.75,1.972,4.231,1.156c0.71-0.446,1.231-1.156,1.451-1.934l5.613-20.879l20.914,5.61
	c1.67,0.408,3.456-0.555,3.789-2.267C187.521,177.613,187.264,176.683,186.781,175.904L186.781,175.904z M106.304,187.121
	L106.304,187.121l-4.458-16.645c-0.483-1.636-2.191-2.671-3.861-2.229l-0.075,0.038l-16.497,4.423l10.702-18.651l0.22,0.185
	c6.727,6.8,15.273,11.666,24.895,14.004L106.304,187.121L106.304,187.121z M129.567,159.181L129.567,159.181
	c-11.669,0-22.22-4.753-29.836-12.331c-7.616-7.654-12.372-18.205-12.372-29.798c0-11.662,4.756-22.217,12.372-29.833
	c7.616-7.688,18.167-12.372,29.836-12.372c11.662,0,22.213,4.684,29.795,12.372c7.65,7.616,12.406,18.171,12.406,29.833
	c0,11.594-4.756,22.145-12.406,29.798C151.78,154.429,141.229,159.181,129.567,159.181L129.567,159.181z M161.107,168.285
	L161.107,168.285l-0.038-0.038c-1.673-0.442-3.419,0.593-3.865,2.229l-4.382,16.645l-11.001-18.873
	c9.622-2.339,18.205-7.204,24.929-14.004l0.189-0.185l10.774,18.651L161.107,168.285L161.107,168.285z M151.708,94.835
	L151.708,94.835c-5.685-5.644-13.565-9.176-22.141-9.176c-8.621,0-16.535,3.532-22.148,9.176
	c-5.754,5.689-9.248,13.524-9.248,22.217c0,8.621,3.494,16.497,9.248,22.145c5.613,5.72,13.528,9.214,22.148,9.214
	c8.576,0,16.456-3.494,22.141-9.214c5.644-5.648,9.214-13.524,9.214-22.145C160.922,108.359,157.352,100.524,151.708,94.835
	L151.708,94.835z M147.247,134.773L147.247,134.773c-4.495,4.499-10.812,7.321-17.68,7.321c-6.913,0-13.229-2.822-17.759-7.321
	c-4.537-4.567-7.396-10.808-7.396-17.721c0-6.906,2.86-13.222,7.396-17.759c4.53-4.53,10.846-7.352,17.759-7.352
	c6.868,0,13.185,2.822,17.68,7.352c4.533,4.537,7.359,10.853,7.359,17.759C154.606,123.965,151.78,130.206,147.247,134.773
	L147.247,134.773z"/>
<circle id="XMLID_780_" style="opacity:0.18;fill:#FFFFFF;" cx="212.472" cy="163" r="4"/>
<circle id="XMLID_973_" style="opacity:0.18;fill:#FFFFFF;" cx="117.472" cy="117" r="4"/>
<circle id="XMLID_915_" style="opacity:0.18;fill:#FFFFFF;" cx="63.472" cy="64" r="4"/>
<circle id="XMLID_945_" style="opacity:0.58;fill:#FFFFFF;" cx="73.472" cy="198" r="2"/>
<circle id="XMLID_959_" style="opacity:0.58;fill:#FFFFFF;" cx="168.472" cy="210" r="2"/>
<circle id="XMLID_929_" style="opacity:0.58;fill:#FFFFFF;" cx="55.472" cy="119" r="2"/>
<circle id="XMLID_931_" style="opacity:0.58;fill:#FFFFFF;" cx="113.472" cy="38" r="2"/>
<circle id="XMLID_930_" style="opacity:0.58;fill:#FFFFFF;" cx="198.472" cy="79" r="2"/>
</svg>
