<?xml version="1.0" encoding="iso-8859-1"?>
<!-- Generator: Adobe Illustrator 19.0.0, SVG Export Plug-In . SVG Version: 6.00 Build 0)  -->
<svg version="1.1" id="&#x56FE;&#x5C42;_1" xmlns="http://www.w3.org/2000/svg" xmlns:xlink="http://www.w3.org/1999/xlink" x="0px"
	 y="0px" viewBox="0 0 256 256" style="enable-background:new 0 0 256 256;" xml:space="preserve">
<path id="XMLID_688_" style="fill:#DC7418;" d="M152,240h-48c-48.601,0-88-39.399-88-88v-48c0-48.601,39.399-88,88-88h48
	c48.601,0,88,39.399,88,88v48C240,200.601,200.601,240,152,240z"/>
<path id="XMLID_95_" style="fill:#FFFFFF;" d="M125.47,62.561h0.066c5.103,0,9.794,2.091,13.207,5.536
	c2.363,2.366,4.121,5.371,4.928,8.716h15.265c1.59,0,2.874,1.315,2.874,2.868v0.072v2.565h13.105c2.6,0,4.729,2.126,4.729,4.726
	v0.137v15.938c5.605,0.982,10.602,3.616,14.451,7.5l0.14,0.168c4.791,4.863,7.765,11.621,7.765,19.049
	c0,7.397-3.039,14.186-7.905,19.049l-0.065,0.065c-3.784,3.819-8.781,6.484-14.386,7.565v28.03c0,2.637-2.129,4.763-4.729,4.763
	h-0.134h-98.69c-2.631,0-4.76-2.126-4.76-4.763v-0.1V87.044c0-2.6,2.129-4.726,4.76-4.726h0.106H89.13v-2.637
	c0-1.552,1.284-2.868,2.905-2.868h0.065h15.165c0.845-3.345,2.6-6.35,4.966-8.716C115.607,64.653,120.336,62.561,125.47,62.561
	L125.47,62.561z M116.486,164.555L116.486,164.555c-1.552,0-2.837-1.319-2.837-2.871c0-1.587,1.284-2.805,2.837-2.805h30.124
	c1.556,0,2.805,1.219,2.805,2.805c0,1.552-1.25,2.871-2.805,2.871H116.486L116.486,164.555z M116.486,141.657L116.486,141.657
	c-1.552,0-2.837-1.25-2.837-2.837c0-1.587,1.284-2.905,2.837-2.905h14.825c1.587,0,2.871,1.319,2.871,2.905
	c0,1.587-1.284,2.837-2.871,2.837H116.486L116.486,141.657z M116.486,118.857L116.486,118.857c-1.552,0-2.837-1.247-2.837-2.799
	c0-1.624,1.284-2.905,2.837-2.905h18.644c1.618,0,2.871,1.281,2.871,2.905c0,1.552-1.253,2.799-2.871,2.799H116.486L116.486,118.857
	z M170.117,103.088L170.117,103.088V91.841h-8.307v2.603c0,1.587-1.284,2.899-2.874,2.899h-0.065H125.47H92.035
	c-1.621,0-2.905-1.312-2.905-2.899v-0.072v-2.531h-8.307v87.914h89.295v-23.239c-5.57-1.081-10.536-3.712-14.386-7.565v-0.065v0.065
	c-4.897-4.928-7.936-11.717-7.936-19.115c0-7.5,3.039-14.286,7.936-19.217C159.581,106.735,164.547,104.066,170.117,103.088
	L170.117,103.088z M190.045,114.671L190.045,114.671c-3.853-3.884-9.255-6.316-15.131-6.316c-5.944,0-11.281,2.431-15.165,6.316
	c-3.85,3.853-6.284,9.221-6.284,15.165c0,5.842,2.434,11.212,6.284,15.059c3.884,3.89,9.221,6.284,15.165,6.284
	c5.876,0,11.278-2.394,15.131-6.284c3.815-3.778,6.213-9.217,6.213-15.059c0-5.876-2.329-11.178-6.078-15.031L190.045,114.671
	L190.045,114.671z M90.074,152.058L90.074,152.058h0.069h13.444c1.618,0,2.834,1.284,2.834,2.905v0.031v13.407
	c0,1.559-1.216,2.871-2.834,2.871h-0.072H90.074c-1.552,0-2.837-1.312-2.837-2.871v-0.065v-13.373
	C87.238,153.343,88.522,152.058,90.074,152.058L90.074,152.058z M100.748,157.766L100.748,157.766h-7.833v7.837h7.833V157.766
	L100.748,157.766z M90.074,129.191L90.074,129.191h0.069h13.444c1.618,0,2.834,1.319,2.834,2.874v0.065v13.479
	c0,1.552-1.216,2.871-2.834,2.871h-0.072H90.074c-1.552,0-2.837-1.319-2.837-2.871v-0.137v-13.407
	C87.238,130.51,88.522,129.191,90.074,129.191L90.074,129.191z M100.748,134.936L100.748,134.936h-7.833v7.799h7.833V134.936
	L100.748,134.936z M90.074,106.364L90.074,106.364h0.069h13.444c1.618,0,2.834,1.247,2.834,2.802v0.069v13.472
	c0,1.555-1.216,2.874-2.834,2.874h-0.072H90.074c-1.552,0-2.837-1.319-2.837-2.874v-0.065v-13.476
	C87.238,107.611,88.522,106.364,90.074,106.364L90.074,106.364z M100.748,112.071L100.748,112.071h-7.833v7.837h7.833V112.071
	L100.748,112.071z M185.993,118.792L185.993,118.792c1.079-1.116,2.905-1.116,4.052,0c1.079,1.116,1.079,2.936,0,4.018
	l-18.036,17.967c-1.082,1.147-2.905,1.147-4.052,0l-0.1-0.1l-8.142-8.176c-1.079-1.044-1.079-2.871,0-3.984
	c1.147-1.113,2.971-1.113,4.052,0l6.281,6.216L185.993,118.792L185.993,118.792z M137.761,76.813L137.761,76.813
	c-0.673-1.792-1.752-3.41-3.07-4.729c-2.366-2.366-5.605-3.819-9.155-3.819h-0.066c-3.579,0-6.858,1.453-9.189,3.819
	c-1.347,1.319-2.36,2.936-3.036,4.729h12.226H137.761L137.761,76.813z M125.47,82.552L125.47,82.552H94.872v4.492v4.56h30.598
	h30.667v-4.56v-4.492H125.47L125.47,82.552z"/>
<circle id="XMLID_914_" style="opacity:0.16;fill:#FFFFFF;" cx="183.472" cy="203" r="4"/>
<circle id="XMLID_898_" style="opacity:0.18;fill:#FFFFFF;" cx="38.472" cy="117" r="4"/>
<circle id="XMLID_912_" style="opacity:0.58;fill:#FFFFFF;" cx="106.472" cy="215" r="2"/>
<circle id="XMLID_913_" style="opacity:0.58;fill:#FFFFFF;" cx="196.472" cy="50" r="2"/>
</svg>
