<?xml version="1.0" encoding="iso-8859-1"?>
<!-- Generator: Adobe Illustrator 19.0.0, SVG Export Plug-In . SVG Version: 6.00 Build 0)  -->
<svg version="1.1" id="&#x56FE;&#x5C42;_1" xmlns="http://www.w3.org/2000/svg" xmlns:xlink="http://www.w3.org/1999/xlink" x="0px"
	 y="0px" viewBox="0 0 256 256" style="enable-background:new 0 0 256 256;" xml:space="preserve">
<path id="XMLID_744_" style="fill:#1A6950;" d="M152,240h-48c-48.601,0-88-39.399-88-88v-48c0-48.601,39.399-88,88-88h48
	c48.601,0,88,39.399,88,88v48C240,200.601,200.601,240,152,240z"/>
<path id="XMLID_552_" style="fill:#FFFFFF;" d="M115.189,153.799h10.741c9.055,0,17.314-3.765,23.243-9.695h0.041
	c5.929-6.055,9.658-14.189,9.658-23.328V87.878H82.247v32.897c0,9.14,3.688,17.274,9.698,23.328l0,0
	C97.878,150.033,106.134,153.799,115.189,153.799L115.189,153.799z M65.821,184.259L65.821,184.259
	c-3.089,0-5.615-2.489-5.615-5.611c0-3.126,2.526-5.612,5.615-5.612h109.441c3.166,0,5.648,2.486,5.648,5.612
	c0,3.122-2.482,5.611-5.648,5.611H65.821L65.821,184.259z M169.772,126.546L169.772,126.546c0.322,0.244,0.522,0.326,0.762,0.485
	h12.865c2.885,0,5.371-1.124,7.25-3.048c1.883-1.843,3.085-4.409,3.085-7.253v-4.446c0-2.807-1.202-5.408-3.085-7.257
	c-1.879-1.842-4.365-3.003-7.25-3.003h-13.227v18.753C170.172,122.78,170.013,124.704,169.772,126.546L169.772,126.546z
	 M170.172,90.682L170.172,90.682h13.227c5.929,0,11.378,2.445,15.306,6.373c3.85,3.924,6.295,9.299,6.295,15.228v4.446
	c0,5.933-2.445,11.344-6.295,15.272c-3.928,3.884-9.377,6.332-15.306,6.332h-15.79h-0.122c-0.277,0-0.603,0-0.921-0.085
	c-2.245,5.13-5.452,9.78-9.295,13.708l-0.081,0.078v0.041c-8.056,8.015-19.075,12.942-31.259,12.942h-10.741
	c-12.225,0-23.243-4.927-31.255-12.942v-0.041c-8.015-8.015-12.987-19.075-12.987-31.259v-38.39v-0.159
	c0-3.166,2.486-5.693,5.689-5.693h87.766h0.081c3.126,0,5.689,2.527,5.689,5.693V90.682L170.172,90.682z"/>
<circle id="XMLID_1077_" style="opacity:0.16;fill:#FFFFFF;" cx="193.472" cy="184" r="4"/>
<circle id="XMLID_1076_" style="opacity:0.16;fill:#FFFFFF;" cx="93.472" cy="103" r="4"/>
<circle id="XMLID_1073_" style="opacity:0.16;fill:#FFFFFF;" cx="116.472" cy="47" r="4"/>
<circle id="XMLID_1059_" style="opacity:0.58;fill:#FFFFFF;" cx="203.472" cy="58" r="2"/>
<circle id="XMLID_1075_" style="opacity:0.58;fill:#FFFFFF;" cx="143.472" cy="220" r="2"/>
<circle id="XMLID_1074_" style="opacity:0.58;fill:#FFFFFF;" cx="42.472" cy="164" r="2"/>
</svg>
