<?xml version="1.0" encoding="iso-8859-1"?>
<!-- Generator: Adobe Illustrator 19.0.0, SVG Export Plug-In . SVG Version: 6.00 Build 0)  -->
<svg version="1.1" id="&#x56FE;&#x5C42;_1" xmlns="http://www.w3.org/2000/svg" xmlns:xlink="http://www.w3.org/1999/xlink" x="0px"
	 y="0px" viewBox="0 0 256 256" style="enable-background:new 0 0 256 256;" xml:space="preserve">
<path id="XMLID_643_" style="fill:#726B5E;" d="M152,240h-48c-48.601,0-88-39.399-88-88v-48c0-48.601,39.399-88,88-88h48
	c48.601,0,88,39.399,88,88v48C240,200.601,200.601,240,152,240z"/>
<path id="XMLID_547_" style="fill:#FFFFFF;" d="M69.012,86.227c8.301,0.664,14.194-2.004,19.715-4.525
	c11.082-5.001,21.011-9.526,42.022,3.485c21.049-13.011,31.057-8.486,42.06-3.485c5.671,2.521,11.636,5.264,20.125,4.525
	c2.924-0.264,5.411,1.85,5.667,4.703v0.482h0.072v82.932c0,2.856-2.371,5.189-5.257,5.189c-11.044,0.893-18.087-2.408-24.828-5.408
	c-8.821-3.892-16.753-7.597-34.908,4.518c-1.782,1.153-4.115,1.112-5.746,0c-18.271-12.115-26.128-8.411-34.908-4.518
	c-6.817,3.075-14.081,6.372-25.31,5.373c-2.743-0.222-4.782-2.487-4.782-5.155h-0.038V91.413c0-2.928,2.37-5.264,5.226-5.264
	C68.417,86.149,68.752,86.227,69.012,86.227L69.012,86.227z M181.962,121.392L181.962,121.392c-3.591-0.889-6.888-2.411-9.966-3.851
	c-8.562-3.817-16.418-7.378-30.164-1.782c-1.594,0.705-2.374,2.483-1.703,4.115c0.667,1.594,2.442,2.333,4.074,1.703
	c11.229-4.556,17.94-1.556,25.201,1.741c3.407,1.484,6.892,3.078,11.007,4.077c1.703,0.482,3.372-0.52,3.817-2.186
	C184.667,123.506,183.634,121.802,181.962,121.392L181.962,121.392z M181.962,136.694L181.962,136.694
	c-3.591-0.923-6.888-2.404-9.966-3.742c-8.562-3.889-16.418-7.446-30.164-1.85c-1.594,0.667-2.374,2.442-1.703,4.036
	c0.667,1.632,2.442,2.411,4.074,1.744c11.229-4.631,17.94-1.594,25.201,1.703c3.407,1.56,6.892,3.188,11.007,4.228
	c1.703,0.366,3.372-0.629,3.817-2.34C184.667,138.808,183.634,137.105,181.962,136.694L181.962,136.694z M181.962,152.004
	L181.962,152.004c-3.591-0.93-6.888-2.449-9.966-3.783c-8.562-3.93-16.418-7.412-30.164-1.779c-1.594,0.67-2.374,2.446-1.703,4.002
	c0.667,1.56,2.442,2.408,4.074,1.741c11.229-4.594,17.94-1.519,25.201,1.706c3.407,1.557,6.892,3.15,11.007,4.187
	c1.703,0.373,3.372-0.554,3.817-2.295C184.667,154.076,183.634,152.448,181.962,152.004L181.962,152.004z M181.962,106.048
	L181.962,106.048c-3.591-0.961-6.888-2.37-9.966-3.779c-8.562-3.855-16.418-7.412-30.164-1.813
	c-1.594,0.664-2.374,2.483-1.703,4.114c0.667,1.628,2.442,2.295,4.074,1.704c11.229-4.672,17.94-1.594,25.201,1.703
	c3.407,1.518,6.892,3.112,11.007,4.19c1.703,0.404,3.372-0.558,3.817-2.261C184.667,108.234,183.634,106.493,181.962,106.048
	L181.962,106.048z M81.13,127.394L81.13,127.394c4.115-0.999,7.597-2.593,11.003-4.077c7.265-3.297,13.972-6.297,25.201-1.741
	c1.631,0.629,3.41-0.11,4.115-1.703c0.667-1.631-0.147-3.41-1.741-4.115c-13.75-5.596-21.603-2.035-30.13,1.782
	c-3.112,1.44-6.372,2.962-10.004,3.851c-1.669,0.41-2.668,2.114-2.261,3.817C77.796,126.875,79.427,127.877,81.13,127.394
	L81.13,127.394z M81.13,142.813L81.13,142.813c4.115-1.04,7.597-2.668,11.003-4.228c7.265-3.297,13.972-6.334,25.201-1.703
	c1.631,0.667,3.41-0.113,4.115-1.744c0.667-1.594-0.147-3.369-1.741-4.036c-13.75-5.596-21.603-2.039-30.13,1.85
	c-3.112,1.337-6.372,2.818-10.004,3.742c-1.669,0.41-2.668,2.113-2.261,3.779C77.796,142.184,79.427,143.179,81.13,142.813
	L81.13,142.813z M81.13,158.078L81.13,158.078c4.152-1.036,7.634-2.63,11.003-4.187c7.265-3.225,13.972-6.3,25.239-1.706
	c1.593,0.667,3.41-0.181,4.077-1.741c0.667-1.556-0.147-3.331-1.741-4.002c-13.75-5.633-21.603-2.151-30.13,1.779
	c-3.112,1.334-6.372,2.853-10.004,3.783c-1.669,0.445-2.668,2.073-2.261,3.779C77.796,157.524,79.499,158.451,81.13,158.078
	L81.13,158.078z M81.13,112.167L81.13,112.167c4.152-1.077,7.634-2.672,11.003-4.19c7.265-3.297,13.972-6.375,25.239-1.703
	c1.593,0.592,3.41-0.075,4.077-1.704c0.667-1.631-0.147-3.451-1.741-4.114c-13.75-5.599-21.603-2.042-30.13,1.813
	c-3.112,1.409-6.372,2.818-10.004,3.779c-1.669,0.445-2.668,2.186-2.261,3.858C77.796,111.61,79.499,112.571,81.13,112.167
	L81.13,112.167z M133.899,95.599L133.899,95.599v70.667c18.935-10.668,28.461-6.369,38.91-1.628
	c4.522,2.039,9.303,4.224,15.381,4.559V96.711c-8.116-0.298-14.081-2.965-19.602-5.483C159.801,87.26,151.948,83.706,133.899,95.599
	L133.899,95.599z M127.678,166.266L127.678,166.266V95.599c-18.087-11.893-25.943-8.339-34.651-4.371
	c-5.596,2.517-11.489,5.185-19.681,5.483v72.487c6.081-0.335,10.86-2.521,15.381-4.559
	C99.217,159.898,108.773,155.598,127.678,166.266L127.678,166.266z"/>
<circle id="XMLID_529_" style="opacity:0.18;fill:#FFFFFF;" cx="174.472" cy="201" r="4"/>
<circle id="XMLID_535_" style="opacity:0.18;fill:#FFFFFF;" cx="190.472" cy="54" r="4"/>
<circle id="XMLID_497_" style="opacity:0.18;fill:#FFFFFF;" cx="110.472" cy="192" r="4"/>
<circle id="XMLID_483_" style="opacity:0.18;fill:#FFFFFF;" cx="101.472" cy="50" r="4"/>
<circle id="XMLID_528_" style="opacity:0.25;fill:#FFFFFF;" cx="128.472" cy="219" r="3"/>
<circle id="XMLID_527_" style="opacity:0.66;fill:#FFFFFF;" cx="45.472" cy="115" r="2"/>
<circle id="XMLID_526_" style="opacity:0.58;fill:#FFFFFF;" cx="214.472" cy="156" r="2"/>
<circle id="XMLID_553_" style="opacity:0.58;fill:#FFFFFF;" cx="87.472" cy="205" r="2"/>
</svg>
